<svg width="16" height="16" viewBox="0 0 16 16" fill="none" xmlns="http://www.w3.org/2000/svg">
<path d="M13.3334 4H2.66671C1.93033 4 1.33337 4.59695 1.33337 5.33333V10.6667C1.33337 11.403 1.93033 12 2.66671 12H13.3334C14.0698 12 14.6667 11.403 14.6667 10.6667V5.33333C14.6667 4.59695 14.0698 4 13.3334 4Z" stroke="white" stroke-linecap="round" stroke-linejoin="round"/>
<path d="M7.99996 9.33341C8.73634 9.33341 9.33329 8.73646 9.33329 8.00008C9.33329 7.2637 8.73634 6.66675 7.99996 6.66675C7.26358 6.66675 6.66663 7.2637 6.66663 8.00008C6.66663 8.73646 7.26358 9.33341 7.99996 9.33341Z" stroke="white" stroke-linecap="round" stroke-linejoin="round"/>
<path d="M4 8H4.00667M12 8H12.0067" stroke="white" stroke-linecap="round" stroke-linejoin="round"/>
</svg>
