<svg width="20" height="20" viewBox="0 0 20 20" fill="none" xmlns="http://www.w3.org/2000/svg">
<g clip-path="url(#clip0_7221_73003)">
<path d="M15.9395 7.89332L7.70615 3.48665C7.52035 3.38801 7.31319 3.33643 7.10282 3.33643C6.89245 3.33643 6.68529 3.38801 6.49949 3.48665L4.06615 4.75332C3.84675 4.87355 3.6632 5.04987 3.53424 5.26426C3.40529 5.47865 3.33555 5.72343 3.33216 5.9736C3.32877 6.22376 3.39185 6.47034 3.51495 6.68815C3.63805 6.90596 3.81676 7.08718 4.03282 7.21332L12.1795 11.8333C12.3774 11.9431 12.5999 12.0006 12.8262 12.0006C13.0524 12.0006 13.275 11.9431 13.4728 11.8333L15.9995 10.34C16.2111 10.2107 16.385 10.028 16.5036 9.81019C16.6223 9.59242 16.6815 9.34726 16.6755 9.09934C16.6694 8.85142 16.5982 8.60946 16.469 8.39777C16.3398 8.18607 16.1572 8.0121 15.9395 7.89332Z" stroke="white" stroke-linecap="round" stroke-linejoin="round"/>
<path d="M4.06061 7.89332L12.2939 3.48665C12.4798 3.38801 12.6869 3.33643 12.8973 3.33643C13.1076 3.33643 13.3148 3.38801 13.5006 3.48665L15.9339 4.75332C16.1551 4.87051 16.3412 5.04435 16.4732 5.25704C16.6051 5.46973 16.6782 5.71366 16.685 5.96387C16.6918 6.21408 16.632 6.4616 16.5117 6.68113C16.3915 6.90066 16.2151 7.08431 16.0006 7.21332L7.82061 11.8333C7.62274 11.9431 7.4002 12.0006 7.17394 12.0006C6.94768 12.0006 6.72515 11.9431 6.52728 11.8333L4.00061 10.34C3.789 10.2107 3.61513 10.028 3.49648 9.81019C3.37783 9.59242 3.31856 9.34726 3.32464 9.09934C3.33072 8.85142 3.40193 8.60946 3.53112 8.39777C3.6603 8.18607 3.84291 8.0121 4.06061 7.89332Z" stroke="white" stroke-linecap="round" stroke-linejoin="round"/>
<path d="M10 16.6667V10.6667" stroke="white" stroke-linecap="round" stroke-linejoin="round"/>
<path d="M15.3327 11V13.2467C15.3329 13.4983 15.2641 13.7452 15.1336 13.9603C15.0031 14.1755 14.816 14.3506 14.5927 14.4667L10.5927 16.52C10.4094 16.6152 10.2059 16.665 9.99935 16.665C9.7928 16.665 9.58929 16.6152 9.40602 16.52L5.40602 14.4667C5.18274 14.3506 4.99564 14.1755 4.86514 13.9603C4.73464 13.7452 4.66576 13.4983 4.66602 13.2467V11" stroke="white" stroke-linecap="round" stroke-linejoin="round"/>
</g>
<defs>
<clipPath id="clip0_7221_73003">
<rect width="16" height="16" fill="white" transform="translate(2 2)"/>
</clipPath>
</defs>
</svg>
