<svg width="20" height="20" viewBox="0 0 20 20" fill="none" xmlns="http://www.w3.org/2000/svg">
<path d="M14.3333 15.9999C15.622 15.9999 16.6667 14.9552 16.6667 13.6666C16.6667 12.3779 15.622 11.3333 14.3333 11.3333C13.0447 11.3333 12 12.3779 12 13.6666C12 14.9552 13.0447 15.9999 14.3333 15.9999Z" stroke="white" stroke-linecap="round" stroke-linejoin="round"/>
<path d="M5.66732 15.9999C6.95598 15.9999 8.00065 14.9552 8.00065 13.6666C8.00065 12.3779 6.95598 11.3333 5.66732 11.3333C4.37865 11.3333 3.33398 12.3779 3.33398 13.6666C3.33398 14.9552 4.37865 15.9999 5.66732 15.9999Z" stroke="white" stroke-linecap="round" stroke-linejoin="round"/>
<path d="M12.0007 6.00008C12.3688 6.00008 12.6673 5.7016 12.6673 5.33341C12.6673 4.96522 12.3688 4.66675 12.0007 4.66675C11.6325 4.66675 11.334 4.96522 11.334 5.33341C11.334 5.7016 11.6325 6.00008 12.0007 6.00008Z" stroke="white" stroke-linecap="round" stroke-linejoin="round"/>
<path d="M10 13.6666V11.3333L8 9.33325L10.6667 7.33325L12 9.33325H13.3333" stroke="white" stroke-linecap="round" stroke-linejoin="round"/>
</svg>
