<svg width="16" height="16" viewBox="0 0 16 16" fill="none" xmlns="http://www.w3.org/2000/svg">
<path d="M13.3334 4H2.66671C1.93033 4 1.33337 4.59695 1.33337 5.33333V10.6667C1.33337 11.403 1.93033 12 2.66671 12H13.3334C14.0698 12 14.6667 11.403 14.6667 10.6667V5.33333C14.6667 4.59695 14.0698 4 13.3334 4Z" stroke="#1F2937" stroke-linecap="round" stroke-linejoin="round"/>
<path d="M7.99996 9.33329C8.73634 9.33329 9.33329 8.73634 9.33329 7.99996C9.33329 7.26358 8.73634 6.66663 7.99996 6.66663C7.26358 6.66663 6.66663 7.26358 6.66663 7.99996C6.66663 8.73634 7.26358 9.33329 7.99996 9.33329Z" stroke="#1F2937" stroke-linecap="round" stroke-linejoin="round"/>
<path d="M4 8H4.00667M12 8H12.0067" stroke="black" stroke-linecap="round" stroke-linejoin="round"/>
</svg>
