<?xml version="1.0" encoding="utf-8"?><!-- Uploaded to: SVG Repo, www.svgrepo.com, Generator: SVG Repo Mixer Tools -->
<svg width="800px" height="800px" viewBox="0 0 24 24" fill="none" xmlns="http://www.w3.org/2000/svg">
<path d="M9.22222 16C8.54721 16 8 16.5472 8 17.2222V18C8 20.2091 9.79086 22 12 22C14.2091 22 16 20.2091 16 18V17.2222C16 16.5472 15.4528 16 14.7778 16H9.22222Z" fill="#152C70"/>
<path d="M14.1893 2.60573C12.7604 2.18237 11.2395 2.18237 9.81066 2.60573C7.01297 3.43468 5.09373 6.00505 5.09373 8.92297V11.6949C5.09373 12.1769 4.99829 12.6541 4.81292 13.099L4.63261 13.5317C4.39386 14.1047 4.29705 14.7685 4.45055 15.4024C4.61088 16.0645 5.04065 16.6566 5.75252 16.9825C6.91236 17.5135 8.83442 18 12 18C15.6768 18 17.6787 17.3434 18.7548 16.7218C19.8833 16.0699 19.8926 14.7924 19.5506 13.9715L19.4692 13.7761C19.0976 12.8842 18.9062 11.9275 18.9062 10.9613V8.92297C18.9062 6.00505 16.987 3.43468 14.1893 2.60573Z" fill="#4296FF"/>
</svg>