<svg width="21" height="20" viewBox="0 0 21 20" fill="none" xmlns="http://www.w3.org/2000/svg">
<path d="M15.9167 17.4998C17.5275 17.4998 18.8333 16.194 18.8333 14.5832C18.8333 12.9723 17.5275 11.6665 15.9167 11.6665C14.3058 11.6665 13 12.9723 13 14.5832C13 16.194 14.3058 17.4998 15.9167 17.4998Z" stroke="#6B7280" stroke-linecap="round" stroke-linejoin="round"/>
<path d="M5.08366 17.4998C6.69449 17.4998 8.00033 16.194 8.00033 14.5832C8.00033 12.9723 6.69449 11.6665 5.08366 11.6665C3.47283 11.6665 2.16699 12.9723 2.16699 14.5832C2.16699 16.194 3.47283 17.4998 5.08366 17.4998Z" stroke="#6B7280" stroke-linecap="round" stroke-linejoin="round"/>
<path d="M13.0003 5.00016C13.4606 5.00016 13.8337 4.62707 13.8337 4.16683C13.8337 3.70659 13.4606 3.3335 13.0003 3.3335C12.5401 3.3335 12.167 3.70659 12.167 4.16683C12.167 4.62707 12.5401 5.00016 13.0003 5.00016Z" stroke="black" stroke-linecap="round" stroke-linejoin="round"/>
<path d="M10.5 14.5832V11.6665L8 9.1665L11.3333 6.6665L13 9.1665H14.6667" stroke="black" stroke-linecap="round" stroke-linejoin="round"/>
</svg>
