<svg width="16" height="16" viewBox="0 0 16 16" fill="none" xmlns="http://www.w3.org/2000/svg">
<path d="M10 1.33333H6.00004C5.63185 1.33333 5.33337 1.63181 5.33337 1.99999V3.33333C5.33337 3.70152 5.63185 3.99999 6.00004 3.99999H10C10.3682 3.99999 10.6667 3.70152 10.6667 3.33333V1.99999C10.6667 1.63181 10.3682 1.33333 10 1.33333Z" stroke="#1F2937" stroke-linecap="round" stroke-linejoin="round"/>
<path d="M10.6666 2.66667H12C12.3536 2.66667 12.6927 2.80715 12.9428 3.0572C13.1928 3.30724 13.3333 3.64638 13.3333 4.00001V13.3333C13.3333 13.687 13.1928 14.0261 12.9428 14.2761C12.6927 14.5262 12.3536 14.6667 12 14.6667H3.99996C3.64634 14.6667 3.3072 14.5262 3.05715 14.2761C2.8071 14.0261 2.66663 13.687 2.66663 13.3333V4.00001C2.66663 3.64638 2.8071 3.30724 3.05715 3.0572C3.3072 2.80715 3.64634 2.66667 3.99996 2.66667H5.33329" stroke="#1F2937" stroke-linecap="round" stroke-linejoin="round"/>
<path d="M8 7.33333H10.6667" stroke="#1F2937" stroke-linecap="round" stroke-linejoin="round"/>
<path d="M8 10.6667H10.6667" stroke="#1F2937" stroke-linecap="round" stroke-linejoin="round"/>
<path d="M5.33337 7.33333H5.34004" stroke="#1F2937" stroke-linecap="round" stroke-linejoin="round"/>
<path d="M5.33337 10.6667H5.34004" stroke="#1F2937" stroke-linecap="round" stroke-linejoin="round"/>
</svg>
