<svg width="120" height="24" viewBox="0 0 120 24" fill="none" xmlns="http://www.w3.org/2000/svg">
<path d="M11.4518 6.44517C10.5408 5.92764 9.51421 5.66441 8.47387 5.68162C7.51578 5.66678 6.57056 5.90998 5.73189 6.38711C5.01354 6.80621 4.41156 7.40796 3.98349 8.13485V5.79582H2.47949V22.1826H4.05117V15.4839C4.48002 16.1758 5.06462 16.7511 5.75539 17.161C6.5863 17.6444 7.52706 17.8919 8.48139 17.8781C9.52305 17.8955 10.5506 17.6284 11.4593 17.1039C12.3262 16.5982 13.0416 15.857 13.5273 14.9613C14.0286 14.0497 14.2793 12.9852 14.2793 11.7677C14.2793 10.5677 14.0286 9.50807 13.5273 8.58872C13.044 7.68829 12.3249 6.94561 11.4518 6.44517ZM12.1239 14.2171C11.7635 14.9015 11.2273 15.4706 10.5738 15.8623C9.89983 16.2566 9.13525 16.4572 8.36013 16.4429C7.58186 16.4561 6.81423 16.2556 6.13609 15.8623C5.47929 15.475 4.942 14.9048 4.58603 14.2171C4.21003 13.5107 4.02203 12.6939 4.02203 11.7668C4.02203 10.8397 4.21003 10.0268 4.58603 9.32808C4.94698 8.64542 5.48319 8.07799 6.13609 7.68775C6.81289 7.28616 7.58284 7.08114 8.36389 7.09453C9.12892 7.07821 9.8837 7.27771 10.5465 7.67141C11.2093 8.06512 11.7548 8.63803 12.1239 9.32808C12.5074 10.0281 12.6992 10.841 12.6992 11.7668C12.6992 12.6926 12.5074 13.5094 12.1239 14.2171Z" fill="#131313"/>
<path d="M19.0551 5.79585H17.4834V17.761H19.0551V5.79585Z" fill="#131313"/>
<path d="M18.2801 0.849692C18.1289 0.846008 17.9786 0.873377 17.8379 0.930205C17.6971 0.987033 17.5688 1.07218 17.4604 1.18066C17.3533 1.28421 17.2685 1.40969 17.2113 1.54902C17.1542 1.68836 17.126 1.83846 17.1286 1.98969C17.1267 2.14254 17.1551 2.29417 17.2122 2.4353C17.2692 2.57642 17.3537 2.70404 17.4604 2.81033C17.6822 3.02957 17.9778 3.15201 18.2852 3.15201C18.5927 3.15201 18.8883 3.02957 19.1101 2.81033C19.2153 2.69868 19.2979 2.56654 19.3529 2.42164C19.408 2.27674 19.4344 2.122 19.4306 1.96646C19.434 1.81684 19.4061 1.66821 19.3489 1.53064C19.2916 1.39306 19.2064 1.26975 19.0988 1.16905C18.877 0.956394 18.5831 0.841741 18.2801 0.849692Z" fill="#5FA3D7"/>
<path d="M25.0102 0.849609H23.4385V17.7599H25.0102V0.849609Z" fill="#131313"/>
<path d="M30.9647 0.849609H29.3931V17.7599H30.9647V0.849609Z" fill="#131313"/>
<path d="M66.3969 5.90312C65.6668 5.51602 64.8293 5.32247 63.8843 5.32247C62.7475 5.32247 61.7401 5.60376 60.8622 6.16634C60.3774 6.4742 59.9488 6.86725 59.596 7.32763C59.3275 6.87197 58.9668 6.48118 58.5385 6.18183C57.7188 5.6115 56.7632 5.32634 55.6715 5.32634C54.7647 5.30944 53.869 5.53307 53.0705 5.9757C52.6388 6.22129 52.2528 6.5437 51.9303 6.92796V5.49957H48.6318V17.7609H52.0854V11.607C52.0854 10.878 52.196 10.278 52.4172 9.80699C52.6129 9.36181 52.9376 8.98993 53.3469 8.74247C53.7586 8.50315 54.2249 8.38122 54.6977 8.38925C55.4196 8.38925 55.9764 8.62473 56.368 9.0957C56.7597 9.56666 56.9555 10.296 56.9555 11.2838V17.756H60.4082V11.607C60.4082 10.878 60.5191 10.278 60.7409 9.80699C60.9366 9.36181 61.2613 8.98993 61.6706 8.74247C62.082 8.50315 62.548 8.3812 63.0204 8.38925C63.7442 8.38925 64.3051 8.62473 64.703 9.0957C65.101 9.56666 65.3002 10.296 65.3009 11.2838V17.756H68.7544V10.7418C68.7544 9.49602 68.5442 8.47441 68.1237 7.67699C67.7381 6.91763 67.1353 6.29845 66.3969 5.90312Z" fill="#131313"/>
<path d="M80.5623 6.08031C79.5879 5.56212 78.5043 5.29983 77.4077 5.31676C76.1969 5.31676 75.1122 5.58644 74.1534 6.1258C73.2146 6.64525 72.4304 7.41719 71.8842 8.35935C71.3302 9.30967 71.0536 10.4 71.0542 11.6303C71.0542 12.8458 71.3362 13.9284 71.9002 14.8781C72.4742 15.8405 73.2987 16.618 74.2803 17.1222C75.3061 17.6693 76.4968 17.9429 77.8523 17.9429C78.9295 17.9429 79.8814 17.7719 80.708 17.43C81.4976 17.1148 82.2032 16.6109 82.7666 15.96L80.9308 13.9093C80.5524 14.2907 80.1054 14.5925 79.6148 14.7977C79.0798 15.0067 78.5109 15.1082 77.9388 15.0968C77.3011 15.1126 76.6685 14.9761 76.0907 14.6981C75.5788 14.4469 75.1528 14.0421 74.8687 13.5368C74.711 13.2566 74.5963 12.953 74.5284 12.6368H83.5346C83.5496 12.4848 83.5637 12.3213 83.5797 12.1471C83.5957 11.9729 83.6013 11.8161 83.6013 11.6797C83.6013 10.3577 83.3281 9.22192 82.7816 8.27225C82.257 7.34108 81.4878 6.5813 80.5623 6.08031ZM75.8689 8.4029C76.3457 8.13043 76.8841 7.99286 77.4293 8.00419C77.9713 7.99181 78.5066 8.12951 78.9793 8.4029C79.4188 8.66552 79.779 9.0484 80.0199 9.50902C80.1905 9.83514 80.3029 10.1901 80.3517 10.5571H74.489C74.5398 10.1944 74.6511 9.8434 74.818 9.51967C75.0583 9.05286 75.4229 8.66617 75.8689 8.40483V8.4029Z" fill="#131313"/>
<path d="M91.2668 15.1172C90.8087 15.1172 90.4471 14.9766 90.182 14.6953C89.917 14.414 89.7844 14.0153 89.7844 13.4991V8.50753H92.7501V5.7727H89.7844V2.78721H86.3309V5.7727H84.4932V8.50753H86.3309V13.5485C86.3309 15.0066 86.7219 16.1033 87.504 16.8388C88.2861 17.5743 89.378 17.9427 90.7799 17.944C91.2986 17.9454 91.8155 17.8804 92.3187 17.7504C92.7743 17.64 93.2059 17.4431 93.5914 17.1698L92.6618 14.6633C92.2599 14.9725 91.7682 15.1324 91.2668 15.1172Z" fill="#131313"/>
<path d="M103.784 6.08031C102.81 5.56212 101.726 5.29983 100.63 5.31676C99.4204 5.31676 98.3356 5.58644 97.3755 6.1258C96.4368 6.64525 95.6526 7.41719 95.1064 8.35935C94.5537 9.30967 94.277 10.4 94.2764 11.6303C94.2764 12.8458 94.5584 13.9284 95.1224 14.8781C95.6966 15.8403 96.5211 16.6177 97.5025 17.1222C98.5283 17.6693 99.719 17.9429 101.074 17.9429C102.152 17.9429 103.104 17.7719 103.93 17.43C104.72 17.1148 105.425 16.6109 105.989 15.96L104.149 13.9093C103.771 14.2909 103.324 14.5927 102.833 14.7977C102.299 15.0051 101.732 15.1056 101.162 15.0939C100.524 15.1094 99.8917 14.973 99.3138 14.6952C98.8019 14.444 98.3759 14.0392 98.0918 13.5339C97.9341 13.2537 97.8194 12.9501 97.7515 12.6339H106.758C106.773 12.4819 106.788 12.3184 106.803 12.1442C106.818 11.97 106.824 11.8132 106.824 11.6768C106.824 10.3548 106.552 9.21902 106.006 8.26935C105.48 7.33905 104.71 6.5803 103.784 6.08031ZM99.091 8.4029C99.5681 8.13031 100.107 7.99274 100.652 8.00419C101.194 7.99194 101.729 8.12963 102.202 8.4029C102.641 8.66552 103.001 9.0484 103.242 9.50902C103.413 9.83529 103.525 10.1902 103.575 10.5571H97.7111C97.762 10.1944 97.8733 9.8434 98.0401 9.51967C98.2805 9.05286 98.645 8.66617 99.091 8.40483V8.4029Z" fill="#131313"/>
<path d="M113.671 5.9895C113.182 6.26511 112.759 6.64805 112.431 7.11111V5.49982H109.133V17.7611H112.587V11.9721C112.587 10.8024 112.878 9.94014 113.461 9.3853C114.044 8.83046 114.808 8.55337 115.753 8.55402C115.885 8.55402 116.01 8.55401 116.129 8.56466C116.247 8.5753 116.38 8.58401 116.527 8.5995V5.31692C115.406 5.31692 114.453 5.54111 113.671 5.9895Z" fill="#131313"/>
<path d="M42.7511 6.33494C41.8735 5.80616 40.8717 5.53567 39.855 5.55301C38.8185 5.56591 37.7954 5.87204 36.7859 6.47139C35.7895 7.06365 35.03 7.81687 34.5073 8.73107C33.9879 9.63257 33.7141 10.6616 33.7149 11.7098C33.7105 12.7788 34.0035 13.8395 34.5938 14.8917C35.1766 15.9311 35.9204 16.7188 36.8254 17.2549C37.7092 17.7862 38.716 18.0617 39.7394 18.0524C40.8096 18.0381 41.8571 17.7326 42.7756 17.1669C43.772 16.5746 44.5362 15.814 45.0682 14.8849C45.5936 13.9784 45.8664 12.9405 45.8569 11.8849C45.8512 10.814 45.557 9.75849 44.9742 8.71849C44.3877 7.66365 43.6466 6.86914 42.7511 6.33494ZM44.2908 11.9885C44.315 12.7716 44.1272 13.5463 43.7485 14.2259C43.3454 14.9283 42.767 15.5067 42.0734 15.9011C41.406 16.3116 40.6437 16.5298 39.8663 16.533C39.1031 16.5304 38.3552 16.3121 37.7043 15.902C37.0199 15.4827 36.45 14.8666 35.9944 14.0536C35.5319 13.2285 35.2969 12.4091 35.2894 11.5956C35.2749 10.8119 35.4676 10.0388 35.8468 9.35914C36.2546 8.67072 36.8237 8.09872 37.502 7.69562C38.1803 7.29253 38.946 7.07123 39.729 7.05204C40.4884 7.05288 41.2327 7.26991 41.8797 7.67913C42.5528 8.09526 43.1208 8.71655 43.584 9.543C44.0377 10.3578 44.2733 11.173 44.2908 11.9885Z" fill="#131313"/>
<path d="M41.5121 10.113L37.5049 12.4966C37.4403 12.5347 37.3836 12.5856 37.338 12.6463C37.2925 12.7069 37.259 12.7763 37.2395 12.8503C37.22 12.9243 37.2149 13.0015 37.2243 13.0776C37.2338 13.1536 37.2578 13.227 37.2948 13.2935C37.3318 13.3601 37.3812 13.4184 37.4402 13.4653C37.4991 13.5122 37.5665 13.5466 37.6383 13.5667C37.7102 13.5868 37.7852 13.5921 37.8591 13.5824C37.933 13.5726 38.0043 13.5479 38.0689 13.5098L42.0808 11.1292C42.1454 11.091 42.2021 11.0402 42.2477 10.9795C42.2932 10.9188 42.3267 10.8495 42.3462 10.7755C42.3657 10.7015 42.3708 10.6243 42.3614 10.5482C42.3519 10.4722 42.3279 10.3988 42.2909 10.3322C42.2539 10.2657 42.2045 10.2073 42.1455 10.1605C42.0866 10.1136 42.0192 10.0791 41.9474 10.059C41.8022 10.0185 41.6473 10.0389 41.5168 10.1159L41.5121 10.113Z" fill="#5FA3D7"/>
</svg>
