<svg width="16" height="16" viewBox="0 0 16 16" fill="none" xmlns="http://www.w3.org/2000/svg">
<path d="M13.3346 6.66659C13.3346 10.6666 8.0013 14.6666 8.0013 14.6666C8.0013 14.6666 2.66797 10.6666 2.66797 6.66659C2.66797 5.2521 3.22987 3.89554 4.23007 2.89535C5.23026 1.89516 6.58681 1.33325 8.0013 1.33325C9.41579 1.33325 10.7723 1.89516 11.7725 2.89535C12.7727 3.89554 13.3346 5.2521 13.3346 6.66659Z" stroke="#1F2937" stroke-linecap="round" stroke-linejoin="round"/>
<path d="M8 8.66675C9.10457 8.66675 10 7.77132 10 6.66675C10 5.56218 9.10457 4.66675 8 4.66675C6.89543 4.66675 6 5.56218 6 6.66675C6 7.77132 6.89543 8.66675 8 8.66675Z" stroke="#1F2937" stroke-linecap="round" stroke-linejoin="round"/>
</svg>
