<svg width="26" height="24" viewBox="0 0 26 24" fill="none" xmlns="http://www.w3.org/2000/svg">
<g clip-path="url(#clip0_6644_107870)">
<path d="M26 12.6C26.0014 12.3983 25.8964 12.2105 25.7231 12.105H25.72L25.7092 12.099L16.6999 6.80701C16.661 6.78093 16.6206 6.75709 16.5789 6.73561C16.2311 6.55753 15.8179 6.55753 15.47 6.73561C15.4283 6.7571 15.388 6.78093 15.3491 6.80701L6.33979 12.099L6.32891 12.105C6.05356 12.2749 5.96914 12.6342 6.14037 12.9074C6.19082 12.9879 6.26031 13.055 6.34281 13.1028L15.3521 18.3948C15.3911 18.4207 15.4315 18.4445 15.473 18.4662C15.8209 18.6443 16.2341 18.6443 16.582 18.4662C16.6235 18.4445 16.6639 18.4207 16.7029 18.3948L25.7122 13.1028C25.8922 12.9987 26.0021 12.8067 26 12.6Z" fill="#0A2767"/>
<path d="M7.39014 9.0666H13.3024V14.4444H7.39014V9.0666ZM24.7908 3.6V1.13999C24.805 0.524937 24.3144 0.0147381 23.6946 0H8.35215C7.73233 0.0147381 7.24172 0.524937 7.25592 1.13999V3.6L16.3257 5.99999L24.7908 3.6Z" fill="#0364B8"/>
<path d="M7.25586 3.59998H13.3024V8.99997H7.25586V3.59998Z" fill="#0078D4"/>
<path d="M19.3488 3.59998H13.3022V8.99997L19.3488 14.4H24.7906V8.99997L19.3488 3.59998Z" fill="#28A8EA"/>
<path d="M13.3022 9H19.3487V14.4H13.3022V9Z" fill="#0078D4"/>
<path d="M13.3022 14.4H19.3487V19.8H13.3022V14.4Z" fill="#0364B8"/>
<path d="M7.39014 14.4444H13.3024V19.3332H7.39014V14.4444Z" fill="#14447D"/>
<path d="M19.3489 14.4H24.7907V19.8H19.3489V14.4Z" fill="#0078D4"/>
<path d="M25.7229 13.0698L25.7114 13.0758L16.7021 18.1038C16.6628 18.1278 16.6229 18.1506 16.5812 18.171C16.4282 18.2433 16.262 18.2841 16.0927 18.291L15.6005 18.0054C15.5589 17.9847 15.5185 17.9616 15.4795 17.9364L6.34931 12.7656H6.34508L6.04639 12.6V22.7784C6.05104 23.4575 6.60943 24.0043 7.29377 24H24.7718C24.7821 24 24.7912 23.9952 24.802 23.9952C24.9466 23.986 25.0891 23.9565 25.2253 23.9076C25.2841 23.8828 25.341 23.8535 25.3952 23.82C25.4357 23.7972 25.5052 23.7474 25.5052 23.7474C25.815 23.5199 25.9983 23.1607 25.9998 22.7784V12.6C25.9996 12.7947 25.8938 12.9742 25.7229 13.0698Z" fill="url(#paint0_linear_6644_107870)"/>
<path opacity="0.5" d="M25.5163 12.5598V13.1838L16.0958 19.62L6.34282 12.7698C6.34282 12.7665 6.34011 12.7638 6.33677 12.7638L5.44189 12.2298V11.7798L5.81073 11.7738L6.59073 12.2178L6.60886 12.2238L6.67537 12.2658C6.67537 12.2658 15.8419 17.4558 15.8661 17.4678L16.2168 17.6718C16.247 17.6598 16.2772 17.6478 16.3135 17.6358C16.3316 17.6238 25.4135 12.5538 25.4135 12.5538L25.5163 12.5598Z" fill="#0A2767"/>
<path d="M25.7232 13.0698L25.7117 13.0764L16.7024 18.1044C16.6631 18.1284 16.6232 18.1512 16.5814 18.1716C16.2316 18.3412 15.8224 18.3412 15.4725 18.1716C15.4311 18.1512 15.3907 18.1288 15.3516 18.1044L6.3423 13.0764L6.33142 13.0698C6.15748 12.9762 6.04843 12.7963 6.04663 12.6V22.7784C6.05096 23.4573 6.60915 24.0043 7.29337 24C7.29337 24 7.29339 24 7.29342 24H24.7533C25.4375 24.0043 25.9957 23.4574 26.0001 22.7784C26.0001 22.7784 26.0001 22.7784 26.0001 22.7784V12.6C25.9999 12.7947 25.8941 12.9742 25.7232 13.0698Z" fill="#1490DF"/>
<path opacity="0.1" d="M16.8336 18.03L16.6987 18.105C16.6596 18.1297 16.6193 18.1523 16.5778 18.1728C16.4292 18.2451 16.2677 18.2875 16.1025 18.2976L19.5303 22.32L25.5097 23.7498C25.6735 23.627 25.8039 23.4655 25.8888 23.28L16.8336 18.03Z" fill="black"/>
<path opacity="0.05" d="M17.4443 17.6892L16.6987 18.105C16.6596 18.1297 16.6193 18.1523 16.5778 18.1728C16.4292 18.2452 16.2677 18.2876 16.1025 18.2976L17.7085 22.6914L25.5115 23.748C25.8189 23.519 25.9999 23.1598 26.0001 22.7784V22.647L17.4443 17.6892Z" fill="black"/>
<path d="M7.31035 24H24.7515C25.0199 24.0013 25.2816 23.9172 25.4982 23.76L15.6001 18.0066C15.5585 17.9859 15.5181 17.9628 15.4792 17.9376L6.34895 12.7668H6.34472L6.04663 12.6V22.7436C6.04595 23.4368 6.61173 23.9993 7.31035 24Z" fill="#28A8EA"/>
<path opacity="0.1" d="M14.5115 5.89978V18.6978C14.5104 19.1465 14.2355 19.5498 13.8161 19.7178C13.6863 19.7732 13.5464 19.8018 13.405 19.8018H6.04639V5.39998H7.25569V4.79999H13.405C14.0158 4.80228 14.5102 5.29363 14.5115 5.89978Z" fill="black"/>
<path opacity="0.2" d="M13.9069 6.49981V19.2978C13.9084 19.4427 13.8774 19.5862 13.8161 19.7178C13.6482 20.1285 13.247 20.398 12.8003 20.4H6.04639V5.40001H12.8003C12.9758 5.39827 13.1487 5.44169 13.3022 5.52602C13.6729 5.71132 13.9067 6.08797 13.9069 6.49981Z" fill="black"/>
<path opacity="0.2" d="M13.9069 6.49981V18.0978C13.9039 18.7037 13.4109 19.1947 12.8004 19.2H6.04639V5.40001H12.8003C12.9758 5.39827 13.1487 5.44169 13.3022 5.52602C13.6729 5.71132 13.9067 6.08797 13.9069 6.49981Z" fill="black"/>
<path opacity="0.2" d="M13.3022 6.49982V18.0978C13.3015 18.7046 12.8072 19.197 12.1957 19.2H6.04639V5.40002H12.1957C12.8071 5.40035 13.3025 5.89248 13.3022 6.49923C13.3022 6.49943 13.3022 6.49962 13.3022 6.49982Z" fill="black"/>
<path d="M1.10832 5.40002H12.194C12.8061 5.40002 13.3023 5.89243 13.3023 6.49982V17.5002C13.3023 18.1076 12.8061 18.6 12.194 18.6H1.10832C0.496206 18.6 0 18.1076 0 17.5002V6.49982C0 5.89243 0.496221 5.40002 1.10832 5.40002Z" fill="url(#paint1_linear_6644_107870)"/>
<path d="M3.46407 10.0128C3.73724 9.43529 4.17815 8.95199 4.73022 8.62502C5.34159 8.27769 6.0377 8.10454 6.74189 8.12461C7.39456 8.11057 8.03858 8.27474 8.60361 8.59921C9.13486 8.91358 9.56273 9.37422 9.83528 9.9252C10.1321 10.5323 10.28 11.2005 10.267 11.8752C10.2814 12.5803 10.1292 13.279 9.82259 13.9152C9.54354 14.4859 9.1021 14.9629 8.55282 15.2874C7.96601 15.6218 7.29808 15.7903 6.62157 15.7746C5.95496 15.7906 5.29674 15.6245 4.71873 15.2946C4.18288 14.9798 3.74965 14.5187 3.47073 13.9662C3.17215 13.3678 3.02246 12.7072 3.03418 12.0396C3.02174 11.3405 3.1687 10.6476 3.46407 10.0128ZM4.81365 13.2708C4.95929 13.6359 5.20627 13.9526 5.52593 14.184C5.85152 14.4098 6.24138 14.5263 6.63848 14.5164C7.06138 14.533 7.47822 14.4125 7.82602 14.1732C8.14163 13.9425 8.38212 13.625 8.51773 13.26C8.66934 12.8524 8.74416 12.4206 8.73843 11.9862C8.74312 11.5476 8.67279 11.1114 8.53043 10.6962C8.40469 10.3213 8.17196 9.99074 7.86048 9.74461C7.5214 9.49395 7.10568 9.36682 6.68322 9.38461C6.27752 9.37419 5.87892 9.4916 5.54467 9.72001C5.21961 9.95244 4.96794 10.2719 4.81909 10.641C4.48889 11.4871 4.48717 12.4247 4.81425 13.272L4.81365 13.2708Z" fill="white"/>
<path d="M19.3489 3.59998H24.7907V8.99997H19.3489V3.59998Z" fill="#50D9FF"/>
</g>
<defs>
<linearGradient id="paint0_linear_6644_107870" x1="16.0231" y1="12.6" x2="16.0231" y2="24" gradientUnits="userSpaceOnUse">
<stop stop-color="#35B8F1"/>
<stop offset="1" stop-color="#28A8EA"/>
</linearGradient>
<linearGradient id="paint1_linear_6644_107870" x1="2.31088" y1="4.54067" x2="10.8913" y2="19.5168" gradientUnits="userSpaceOnUse">
<stop stop-color="#1784D9"/>
<stop offset="0.5" stop-color="#107AD5"/>
<stop offset="1" stop-color="#0A63C9"/>
</linearGradient>
<clipPath id="clip0_6644_107870">
<rect width="26" height="24" fill="white"/>
</clipPath>
</defs>
</svg>
