<svg width="21" height="20" viewBox="0 0 21 20" fill="none" xmlns="http://www.w3.org/2000/svg">
<path d="M17.167 5H3.83366C2.91318 5 2.16699 5.74619 2.16699 6.66667V13.3333C2.16699 14.2538 2.91318 15 3.83366 15H17.167C18.0875 15 18.8337 14.2538 18.8337 13.3333V6.66667C18.8337 5.74619 18.0875 5 17.167 5Z" stroke="#5EA3D6" stroke-linecap="round" stroke-linejoin="round"/>
<path d="M10.4997 11.6668C11.4201 11.6668 12.1663 10.9206 12.1663 10.0002C12.1663 9.07969 11.4201 8.3335 10.4997 8.3335C9.5792 8.3335 8.83301 9.07969 8.83301 10.0002C8.83301 10.9206 9.5792 11.6668 10.4997 11.6668Z" stroke="#5EA3D6" stroke-linecap="round" stroke-linejoin="round"/>
<path d="M5.5 10H5.50833M15.5 10H15.5083" stroke="#5EA3D6" stroke-linecap="round" stroke-linejoin="round"/>
</svg>
