<svg width="21" height="20" viewBox="0 0 21 20" fill="none" xmlns="http://www.w3.org/2000/svg">
<path d="M13.0003 1.6665H8.00033C7.54009 1.6665 7.16699 2.0396 7.16699 2.49984V4.1665C7.16699 4.62674 7.54009 4.99984 8.00033 4.99984H13.0003C13.4606 4.99984 13.8337 4.62674 13.8337 4.1665V2.49984C13.8337 2.0396 13.4606 1.6665 13.0003 1.6665Z" stroke="#5EA3D6" stroke-linecap="round" stroke-linejoin="round"/>
<path d="M13.833 3.3335H15.4997C15.9417 3.3335 16.3656 3.50909 16.6782 3.82165C16.9907 4.13421 17.1663 4.55814 17.1663 5.00016V16.6668C17.1663 17.1089 16.9907 17.5328 16.6782 17.8453C16.3656 18.1579 15.9417 18.3335 15.4997 18.3335H5.49967C5.05765 18.3335 4.63372 18.1579 4.32116 17.8453C4.0086 17.5328 3.83301 17.1089 3.83301 16.6668V5.00016C3.83301 4.55814 4.0086 4.13421 4.32116 3.82165C4.63372 3.50909 5.05765 3.3335 5.49967 3.3335H7.16634" stroke="#5EA3D6" stroke-linecap="round" stroke-linejoin="round"/>
<path d="M10.5 9.1665H13.8333" stroke="#5EA3D6" stroke-linecap="round" stroke-linejoin="round"/>
<path d="M10.5 13.3335H13.8333" stroke="#5EA3D6" stroke-linecap="round" stroke-linejoin="round"/>
<path d="M7.16699 9.1665H7.17533" stroke="black" stroke-linecap="round" stroke-linejoin="round"/>
<path d="M7.16699 13.3335H7.17533" stroke="black" stroke-linecap="round" stroke-linejoin="round"/>
</svg>
