<svg width="21" height="20" viewBox="0 0 21 20" fill="none" xmlns="http://www.w3.org/2000/svg">
<path d="M17.9253 7.36652L7.63367 1.85819C7.40141 1.73489 7.14246 1.67041 6.8795 1.67041C6.61654 1.67041 6.35759 1.73489 6.12534 1.85819L3.08367 3.44152C2.80942 3.59182 2.57997 3.81221 2.41878 4.0802C2.25758 4.34819 2.17042 4.65417 2.16618 4.96687C2.16194 5.27958 2.24079 5.58781 2.39466 5.86006C2.54854 6.13232 2.77192 6.35886 3.042 6.51652L13.2253 12.2915C13.4727 12.4287 13.7508 12.5007 14.0337 12.5007C14.3165 12.5007 14.5947 12.4287 14.842 12.2915L18.0003 10.4249C18.2649 10.2632 18.4822 10.0348 18.6305 9.76261C18.7788 9.4904 18.8529 9.18395 18.8453 8.87405C18.8377 8.56415 18.7487 8.2617 18.5872 7.99709C18.4257 7.73247 18.1975 7.515 17.9253 7.36652Z" stroke="#5EA3D6" stroke-linecap="round" stroke-linejoin="round"/>
<path d="M3.07479 7.36652L13.3665 1.85819C13.5987 1.73489 13.8577 1.67041 14.1206 1.67041C14.3836 1.67041 14.6425 1.73489 14.8748 1.85819L17.9165 3.44152C18.1929 3.58802 18.4255 3.80531 18.5905 4.07118C18.7554 4.33704 18.8468 4.64195 18.8553 4.95471C18.8638 5.26748 18.789 5.57688 18.6387 5.85129C18.4884 6.1257 18.2679 6.35527 17.9998 6.51652L7.77479 12.2915C7.52745 12.4287 7.24928 12.5007 6.96645 12.5007C6.68363 12.5007 6.40545 12.4287 6.15812 12.2915L2.99979 10.4249C2.73527 10.2632 2.51794 10.0348 2.36962 9.76261C2.22131 9.4904 2.14723 9.18395 2.15483 8.87405C2.16243 8.56415 2.25144 8.2617 2.41292 7.99709C2.5744 7.73247 2.80266 7.515 3.07479 7.36652Z" stroke="#5EA3D6" stroke-linecap="round" stroke-linejoin="round"/>
<path d="M10.5 18.3335V10.8335" stroke="#5EA3D6" stroke-linecap="round" stroke-linejoin="round"/>
<path d="M17.1663 11.25V14.0583C17.1667 14.3729 17.0806 14.6815 16.9174 14.9504C16.7543 15.2193 16.5204 15.4383 16.2413 15.5833L11.2413 18.15C11.0122 18.2691 10.7579 18.3312 10.4997 18.3312C10.2415 18.3312 9.9871 18.2691 9.75801 18.15L4.75801 15.5833C4.47891 15.4383 4.24503 15.2193 4.08191 14.9504C3.91878 14.6815 3.83268 14.3729 3.83301 14.0583V11.25" stroke="#5EA3D6" stroke-linecap="round" stroke-linejoin="round"/>
</svg>
