<svg width="21" height="20" viewBox="0 0 21 20" fill="none" xmlns="http://www.w3.org/2000/svg">
<path d="M8 2.5H3.83333C3.3731 2.5 3 2.8731 3 3.33333V9.16667C3 9.6269 3.3731 10 3.83333 10H8C8.46024 10 8.83333 9.6269 8.83333 9.16667V3.33333C8.83333 2.8731 8.46024 2.5 8 2.5Z" stroke="#5EA3D6" stroke-linecap="round" stroke-linejoin="round"/>
<path d="M17.167 2.5H13.0003C12.5401 2.5 12.167 2.8731 12.167 3.33333V5.83333C12.167 6.29357 12.5401 6.66667 13.0003 6.66667H17.167C17.6272 6.66667 18.0003 6.29357 18.0003 5.83333V3.33333C18.0003 2.8731 17.6272 2.5 17.167 2.5Z" stroke="#5EA3D6" stroke-linecap="round" stroke-linejoin="round"/>
<path d="M17.167 10H13.0003C12.5401 10 12.167 10.3731 12.167 10.8333V16.6667C12.167 17.1269 12.5401 17.5 13.0003 17.5H17.167C17.6272 17.5 18.0003 17.1269 18.0003 16.6667V10.8333C18.0003 10.3731 17.6272 10 17.167 10Z" stroke="#5EA3D6" stroke-linecap="round" stroke-linejoin="round"/>
<path d="M8 13.3335H3.83333C3.3731 13.3335 3 13.7066 3 14.1668V16.6668C3 17.1271 3.3731 17.5002 3.83333 17.5002H8C8.46024 17.5002 8.83333 17.1271 8.83333 16.6668V14.1668C8.83333 13.7066 8.46024 13.3335 8 13.3335Z" stroke="#5EA3D6" stroke-linecap="round" stroke-linejoin="round"/>
</svg>
