<svg width="21" height="20" viewBox="0 0 21 20" fill="none" xmlns="http://www.w3.org/2000/svg">
<path d="M4.66699 15H3.00033C2.50033 15 2.16699 14.6667 2.16699 14.1667V5.83333C2.16699 5.33333 2.50033 5 3.00033 5H11.3337C11.8337 5 12.167 5.33333 12.167 5.83333V15" stroke="#5EA3D6" stroke-linecap="round" stroke-linejoin="round"/>
<path d="M12.167 7.5H15.5003L18.8337 10.8333V14.1667C18.8337 14.6667 18.5003 15 18.0003 15H16.3337" stroke="#5EA3D6" stroke-linecap="round" stroke-linejoin="round"/>
<path d="M6.33366 16.6668C7.25413 16.6668 8.00033 15.9206 8.00033 15.0002C8.00033 14.0797 7.25413 13.3335 6.33366 13.3335C5.41318 13.3335 4.66699 14.0797 4.66699 15.0002C4.66699 15.9206 5.41318 16.6668 6.33366 16.6668Z" stroke="#5EA3D6" stroke-linecap="round" stroke-linejoin="round"/>
<path d="M13 15H8" stroke="#5EA3D6" stroke-linecap="round" stroke-linejoin="round"/>
<path d="M14.6667 16.6668C15.5871 16.6668 16.3333 15.9206 16.3333 15.0002C16.3333 14.0797 15.5871 13.3335 14.6667 13.3335C13.7462 13.3335 13 14.0797 13 15.0002C13 15.9206 13.7462 16.6668 14.6667 16.6668Z" stroke="#5EA3D6" stroke-linecap="round" stroke-linejoin="round"/>
</svg>
