<svg width="21" height="20" viewBox="0 0 21 20" fill="none" xmlns="http://www.w3.org/2000/svg">
<path d="M10.5003 10.8332C10.9606 10.8332 11.3337 10.4601 11.3337 9.99984C11.3337 9.5396 10.9606 9.1665 10.5003 9.1665C10.0401 9.1665 9.66699 9.5396 9.66699 9.99984C9.66699 10.4601 10.0401 10.8332 10.5003 10.8332Z" stroke="#5EA3D6" stroke-linecap="round" stroke-linejoin="round"/>
<path d="M16.3333 10.8332C16.7936 10.8332 17.1667 10.4601 17.1667 9.99984C17.1667 9.5396 16.7936 9.1665 16.3333 9.1665C15.8731 9.1665 15.5 9.5396 15.5 9.99984C15.5 10.4601 15.8731 10.8332 16.3333 10.8332Z" stroke="#5EA3D6" stroke-linecap="round" stroke-linejoin="round"/>
<path d="M4.66634 10.8332C5.12658 10.8332 5.49967 10.4601 5.49967 9.99984C5.49967 9.5396 5.12658 9.1665 4.66634 9.1665C4.2061 9.1665 3.83301 9.5396 3.83301 9.99984C3.83301 10.4601 4.2061 10.8332 4.66634 10.8332Z" stroke="#5EA3D6" stroke-linecap="round" stroke-linejoin="round"/>
</svg>
