<svg width="21" height="20" viewBox="0 0 21 20" fill="none" xmlns="http://www.w3.org/2000/svg">
<path d="M18 8.33341V6.66675C17.9997 6.37448 17.9225 6.08742 17.7763 5.83438C17.63 5.58134 17.4198 5.37122 17.1667 5.22508L11.3333 1.89175C11.08 1.74547 10.7926 1.66846 10.5 1.66846C10.2074 1.66846 9.92003 1.74547 9.66667 1.89175L3.83333 5.22508C3.58022 5.37122 3.36998 5.58134 3.22372 5.83438C3.07745 6.08742 3.0003 6.37448 3 6.66675V13.3334C3.0003 13.6257 3.07745 13.9127 3.22372 14.1658C3.36998 14.4188 3.58022 14.6289 3.83333 14.7751L9.66667 18.1084C9.92003 18.2547 10.2074 18.3317 10.5 18.3317C10.7926 18.3317 11.08 18.2547 11.3333 18.1084L13 17.1584" stroke="#5EA3D6" stroke-linecap="round" stroke-linejoin="round"/>
<path d="M6.75 3.55811L14.25 7.84977" stroke="#5EA3D6" stroke-linecap="round" stroke-linejoin="round"/>
<path d="M3.24121 5.8335L10.4995 10.0002L17.7579 5.8335" stroke="#5EA3D6" stroke-linecap="round" stroke-linejoin="round"/>
<path d="M10.5 18.3333V10" stroke="#5EA3D6" stroke-linecap="round" stroke-linejoin="round"/>
<path d="M15.9163 15.0002C17.0669 15.0002 17.9997 14.0674 17.9997 12.9168C17.9997 11.7662 17.0669 10.8335 15.9163 10.8335C14.7657 10.8335 13.833 11.7662 13.833 12.9168C13.833 14.0674 14.7657 15.0002 15.9163 15.0002Z" stroke="#5EA3D6" stroke-linecap="round" stroke-linejoin="round"/>
<path d="M17.3916 14.3916L18.8333 15.8333" stroke="#5EA3D6" stroke-linecap="round" stroke-linejoin="round"/>
</svg>
