<svg width="21" height="20" viewBox="0 0 21 20" fill="none" xmlns="http://www.w3.org/2000/svg">
<path d="M10.6833 1.6665H10.3167C9.87464 1.6665 9.45072 1.8421 9.13816 2.15466C8.8256 2.46722 8.65 2.89114 8.65 3.33317V3.48317C8.6497 3.77544 8.57255 4.0625 8.42628 4.31554C8.28002 4.56857 8.06978 4.7787 7.81667 4.92484L7.45834 5.13317C7.20497 5.27945 6.91756 5.35646 6.625 5.35646C6.33244 5.35646 6.04503 5.27945 5.79167 5.13317L5.66667 5.0665C5.28422 4.84589 4.82987 4.78604 4.40334 4.90009C3.97681 5.01415 3.61296 5.29278 3.39167 5.67484L3.20833 5.9915C2.98772 6.37395 2.92787 6.82831 3.04192 7.25484C3.15598 7.68137 3.43461 8.04521 3.81667 8.2665L3.94167 8.34984C4.19356 8.49526 4.40302 8.70408 4.54921 8.95553C4.6954 9.20698 4.77325 9.49231 4.775 9.78317V10.2082C4.77617 10.5019 4.69971 10.7906 4.55337 11.0453C4.40703 11.2999 4.19601 11.5113 3.94167 11.6582L3.81667 11.7332C3.43461 11.9545 3.15598 12.3183 3.04192 12.7448C2.92787 13.1714 2.98772 13.6257 3.20833 14.0082L3.39167 14.3248C3.61296 14.7069 3.97681 14.9855 4.40334 15.0996C4.82987 15.2136 5.28422 15.1538 5.66667 14.9332L5.79167 14.8665C6.04503 14.7202 6.33244 14.6432 6.625 14.6432C6.91756 14.6432 7.20497 14.7202 7.45834 14.8665L7.81667 15.0748C8.06978 15.221 8.28002 15.4311 8.42628 15.6841C8.57255 15.9372 8.6497 16.2242 8.65 16.5165V16.6665C8.65 17.1085 8.8256 17.5325 9.13816 17.845C9.45072 18.1576 9.87464 18.3332 10.3167 18.3332H10.6833C11.1254 18.3332 11.5493 18.1576 11.8618 17.845C12.1744 17.5325 12.35 17.1085 12.35 16.6665V16.5165C12.3503 16.2242 12.4275 15.9372 12.5737 15.6841C12.72 15.4311 12.9302 15.221 13.1833 15.0748L13.5417 14.8665C13.795 14.7202 14.0824 14.6432 14.375 14.6432C14.6676 14.6432 14.955 14.7202 15.2083 14.8665L15.3333 14.9332C15.7158 15.1538 16.1701 15.2136 16.5967 15.0996C17.0232 14.9855 17.387 14.7069 17.6083 14.3248L17.7917 13.9998C18.0123 13.6174 18.0721 13.163 17.9581 12.7365C17.844 12.31 17.5654 11.9461 17.1833 11.7248L17.0583 11.6582C16.804 11.5113 16.593 11.2999 16.4466 11.0453C16.3003 10.7906 16.2238 10.5019 16.225 10.2082V9.7915C16.2238 9.49782 16.3003 9.20904 16.4466 8.95441C16.593 8.69978 16.804 8.48834 17.0583 8.3415L17.1833 8.2665C17.5654 8.04521 17.844 7.68137 17.9581 7.25484C18.0721 6.82831 18.0123 6.37395 17.7917 5.9915L17.6083 5.67484C17.387 5.29278 17.0232 5.01415 16.5967 4.90009C16.1701 4.78604 15.7158 4.84589 15.3333 5.0665L15.2083 5.13317C14.955 5.27945 14.6676 5.35646 14.375 5.35646C14.0824 5.35646 13.795 5.27945 13.5417 5.13317L13.1833 4.92484C12.9302 4.7787 12.72 4.56857 12.5737 4.31554C12.4275 4.0625 12.3503 3.77544 12.35 3.48317V3.33317C12.35 2.89114 12.1744 2.46722 11.8618 2.15466C11.5493 1.8421 11.1254 1.6665 10.6833 1.6665Z" stroke="#5EA3D6" stroke-linecap="round" stroke-linejoin="round"/>
<path d="M10.5 12.5C11.8807 12.5 13 11.3807 13 10C13 8.61929 11.8807 7.5 10.5 7.5C9.11929 7.5 8 8.61929 8 10C8 11.3807 9.11929 12.5 10.5 12.5Z" stroke="#5EA3D6" stroke-linecap="round" stroke-linejoin="round"/>
</svg>
