<svg width="21" height="20" viewBox="0 0 21 20" fill="none" xmlns="http://www.w3.org/2000/svg">
<path d="M10.4998 10.8332C10.9601 10.8332 11.3332 10.4601 11.3332 9.99984C11.3332 9.5396 10.9601 9.1665 10.4998 9.1665C10.0396 9.1665 9.6665 9.5396 9.6665 9.99984C9.6665 10.4601 10.0396 10.8332 10.4998 10.8332Z" stroke="#1F2937" stroke-linecap="round" stroke-linejoin="round"/>
<path d="M16.3333 10.8332C16.7936 10.8332 17.1667 10.4601 17.1667 9.99984C17.1667 9.5396 16.7936 9.1665 16.3333 9.1665C15.8731 9.1665 15.5 9.5396 15.5 9.99984C15.5 10.4601 15.8731 10.8332 16.3333 10.8332Z" stroke="#1F2937" stroke-linecap="round" stroke-linejoin="round"/>
<path d="M4.66683 10.8332C5.12707 10.8332 5.50016 10.4601 5.50016 9.99984C5.50016 9.5396 5.12707 9.1665 4.66683 9.1665C4.20659 9.1665 3.8335 9.5396 3.8335 9.99984C3.8335 10.4601 4.20659 10.8332 4.66683 10.8332Z" stroke="#1F2937" stroke-linecap="round" stroke-linejoin="round"/>
</svg>
