<svg width="32" height="32" viewBox="0 0 32 32" fill="none" xmlns="http://www.w3.org/2000/svg">
<path d="M15.9998 27.6358C20.7693 27.6358 24.6358 23.7693 24.6358 18.9998C24.6358 14.2302 20.7693 10.3638 15.9998 10.3638C11.2302 10.3638 7.36377 14.2302 7.36377 18.9998C7.36377 23.7693 11.2302 27.6358 15.9998 27.6358Z" fill="#FFC93C"/>
<path fill-rule="evenodd" clip-rule="evenodd" d="M3.36002 26.2309C3.03702 26.5009 2.91602 26.9439 3.06002 27.3399C3.20302 27.7359 3.57902 27.9999 4.00002 27.9999H28C28.421 27.9999 28.797 27.7359 28.94 27.3409C29.084 26.9449 28.964 26.5019 28.64 26.2319C24.431 22.7219 20.209 21.0009 16 21.0029C11.791 21.0039 7.56902 22.7289 3.36002 26.2309Z" fill="#82CD47"/>
<path fill-rule="evenodd" clip-rule="evenodd" d="M30 18H27.455C26.903 18 26.455 18.448 26.455 19C26.455 19.552 26.903 20 27.455 20H30C30.552 20 31 19.552 31 19C31 18.448 30.552 18 30 18ZM4.545 18H2C1.448 18 1 18.448 1 19C1 19.552 1.448 20 2 20H4.545C5.097 20 5.545 19.552 5.545 19C5.545 18.448 5.097 18 4.545 18ZM3.376 12.866L5.58 14.139C6.058 14.415 6.67 14.251 6.946 13.773C7.222 13.295 7.058 12.683 6.58 12.407L4.376 11.134C3.898 10.858 3.286 11.022 3.01 11.5C2.734 11.978 2.898 12.59 3.376 12.866ZM27.624 11.134L25.42 12.407C24.942 12.683 24.778 13.295 25.054 13.773C25.33 14.251 25.942 14.415 26.42 14.139L28.624 12.866C29.102 12.59 29.266 11.978 28.99 11.5C28.714 11.022 28.102 10.858 27.624 11.134ZM8.134 7.376L9.407 9.58C9.683 10.058 10.295 10.222 10.773 9.946C11.251 9.67 11.415 9.058 11.139 8.58L9.866 6.376C9.59 5.898 8.978 5.734 8.5 6.01C8.022 6.286 7.858 6.898 8.134 7.376ZM22.134 6.376L20.861 8.58C20.585 9.058 20.749 9.67 21.227 9.946C21.705 10.222 22.317 10.058 22.593 9.58L23.866 7.376C24.142 6.898 23.978 6.286 23.5 6.01C23.022 5.734 22.41 5.898 22.134 6.376ZM15 5V7.545C15 8.097 15.448 8.545 16 8.545C16.552 8.545 17 8.097 17 7.545V5C17 4.448 16.552 4 16 4C15.448 4 15 4.448 15 5Z" fill="#FEDD87"/>
</svg>
