<svg width="10" height="10" viewBox="0 0 10 10" fill="none" xmlns="http://www.w3.org/2000/svg">
<g clip-path="url(#clip0_7020_62003)">
<path d="M2.5 9.16683V1.66683C2.5 1.44582 2.5878 1.23385 2.74408 1.07757C2.90036 0.921293 3.11232 0.833496 3.33333 0.833496H6.66667C6.88768 0.833496 7.09964 0.921293 7.25592 1.07757C7.4122 1.23385 7.5 1.44582 7.5 1.66683V9.16683H2.5Z" stroke="#1F2937" stroke-width="0.5" stroke-linecap="round" stroke-linejoin="round"/>
<path d="M2.49992 5H1.66659C1.44557 5 1.23361 5.0878 1.07733 5.24408C0.921049 5.40036 0.833252 5.61232 0.833252 5.83333V8.33333C0.833252 8.55435 0.921049 8.76631 1.07733 8.92259C1.23361 9.07887 1.44557 9.16667 1.66659 9.16667H2.49992" stroke="#1F2937" stroke-width="0.5" stroke-linecap="round" stroke-linejoin="round"/>
<path d="M7.5 3.75H8.33333C8.55435 3.75 8.76631 3.8378 8.92259 3.99408C9.07887 4.15036 9.16667 4.36232 9.16667 4.58333V8.33333C9.16667 8.55435 9.07887 8.76631 8.92259 8.92259C8.76631 9.07887 8.55435 9.16667 8.33333 9.16667H7.5" stroke="#1F2937" stroke-width="0.5" stroke-linecap="round" stroke-linejoin="round"/>
<path d="M4.16675 2.5H5.83342" stroke="#1F2937" stroke-width="0.5" stroke-linecap="round" stroke-linejoin="round"/>
<path d="M4.16675 4.1665H5.83342" stroke="#1F2937" stroke-width="0.5" stroke-linecap="round" stroke-linejoin="round"/>
<path d="M4.16675 5.8335H5.83342" stroke="#1F2937" stroke-width="0.5" stroke-linecap="round" stroke-linejoin="round"/>
<path d="M4.16675 7.5H5.83342" stroke="#1F2937" stroke-width="0.5" stroke-linecap="round" stroke-linejoin="round"/>
</g>
<defs>
<clipPath id="clip0_7020_62003">
<rect width="10" height="10" fill="white"/>
</clipPath>
</defs>
</svg>
