<svg width="16" height="16" viewBox="0 0 16 16" fill="none" xmlns="http://www.w3.org/2000/svg">
<g clip-path="url(#clip0_7096_4107)">
<path d="M13.94 5.89335L5.70667 1.48668C5.52087 1.38804 5.31371 1.33646 5.10334 1.33646C4.89297 1.33646 4.68581 1.38804 4.50001 1.48668L2.06667 2.75335C1.84727 2.87358 1.66372 3.0499 1.53476 3.26429C1.4058 3.47868 1.33607 3.72346 1.33268 3.97363C1.32929 4.22379 1.39237 4.47037 1.51547 4.68818C1.63857 4.90599 1.81728 5.08721 2.03334 5.21335L10.18 9.83335C10.3779 9.94308 10.6004 10.0007 10.8267 10.0007C11.0529 10.0007 11.2755 9.94308 11.4733 9.83335L14 8.34001C14.2116 8.2107 14.3855 8.02799 14.5041 7.81022C14.6228 7.59245 14.6821 7.34729 14.676 7.09937C14.6699 6.85145 14.5987 6.60949 14.4695 6.3978C14.3403 6.1861 14.1577 6.01213 13.94 5.89335Z" stroke="#71717A" stroke-width="0.7" stroke-linecap="round" stroke-linejoin="round"/>
<path d="M2.06 5.89335L10.2933 1.48668C10.4791 1.38804 10.6863 1.33646 10.8967 1.33646C11.107 1.33646 11.3142 1.38804 11.5 1.48668L13.9333 2.75335C14.1545 2.87055 14.3406 3.04438 14.4725 3.25707C14.6045 3.46976 14.6776 3.71369 14.6844 3.9639C14.6912 4.21411 14.6314 4.46163 14.5111 4.68116C14.3909 4.90069 14.2145 5.08434 14 5.21335L5.82 9.83335C5.62213 9.94308 5.39959 10.0007 5.17333 10.0007C4.94707 10.0007 4.72453 9.94308 4.52667 9.83335L2 8.34001C1.78839 8.2107 1.61452 8.02799 1.49587 7.81022C1.37722 7.59245 1.31795 7.34729 1.32403 7.09937C1.33011 6.85145 1.40132 6.60949 1.5305 6.3978C1.65969 6.1861 1.8423 6.01213 2.06 5.89335Z" stroke="#71717A" stroke-width="0.7" stroke-linecap="round" stroke-linejoin="round"/>
<path d="M8 14.6667V8.66666" stroke="#71717A" stroke-width="0.7" stroke-linecap="round" stroke-linejoin="round"/>
<path d="M13.3333 9V11.2467C13.3336 11.4983 13.2647 11.7452 13.1342 11.9603C13.0037 12.1755 12.8166 12.3506 12.5933 12.4667L8.59332 14.52C8.41005 14.6152 8.20654 14.665 7.99999 14.665C7.79344 14.665 7.58993 14.6152 7.40666 14.52L3.40666 12.4667C3.18338 12.3506 2.99628 12.1755 2.86578 11.9603C2.73528 11.7452 2.6664 11.4983 2.66666 11.2467V9" stroke="#71717A" stroke-width="0.7" stroke-linecap="round" stroke-linejoin="round"/>
</g>
<defs>
<clipPath id="clip0_7096_4107">
<rect width="16" height="16" fill="white"/>
</clipPath>
</defs>
</svg>
