<svg width="20" height="20" viewBox="0 0 20 20" fill="none" xmlns="http://www.w3.org/2000/svg">
<g clip-path="url(#clip0_7232_67105)">
<path d="M15.94 7.89333L7.70664 3.48667C7.52084 3.38802 7.31368 3.33644 7.10331 3.33644C6.89294 3.33644 6.68578 3.38802 6.49998 3.48667L4.06664 4.75333C3.84724 4.87357 3.66369 5.04988 3.53473 5.26428C3.40577 5.47867 3.33604 5.72345 3.33265 5.97361C3.32926 6.22378 3.39234 6.47036 3.51544 6.68816C3.63854 6.90597 3.81725 7.0872 4.03331 7.21333L12.18 11.8333C12.3778 11.9431 12.6004 12.0006 12.8266 12.0006C13.0529 12.0006 13.2754 11.9431 13.4733 11.8333L16 10.34C16.2116 10.2107 16.3855 10.028 16.5041 9.8102C16.6228 9.59243 16.682 9.34728 16.6759 9.09935C16.6699 8.85143 16.5987 8.60947 16.4695 8.39778C16.3403 8.18609 16.1577 8.01212 15.94 7.89333Z" stroke="#1F2937" stroke-linecap="round" stroke-linejoin="round"/>
<path d="M4.05988 7.89333L12.2932 3.48667C12.479 3.38802 12.6862 3.33644 12.8965 3.33644C13.1069 3.33644 13.3141 3.38802 13.4999 3.48667L15.9332 4.75333C16.1544 4.87053 16.3405 5.04436 16.4724 5.25705C16.6044 5.46975 16.6775 5.71367 16.6843 5.96388C16.6911 6.21409 16.6313 6.46162 16.511 6.68115C16.3908 6.90067 16.2144 7.08433 15.9999 7.21333L7.81988 11.8333C7.62201 11.9431 7.39947 12.0006 7.17321 12.0006C6.94695 12.0006 6.72441 11.9431 6.52654 11.8333L3.99988 10.34C3.78826 10.2107 3.6144 10.028 3.49575 9.8102C3.37709 9.59243 3.31783 9.34728 3.32391 9.09935C3.32999 8.85143 3.4012 8.60947 3.53038 8.39778C3.65957 8.18609 3.84218 8.01212 4.05988 7.89333Z" stroke="#1F2937" stroke-linecap="round" stroke-linejoin="round"/>
<path d="M10 16.6667V10.6667" stroke="#1F2937" stroke-linecap="round" stroke-linejoin="round"/>
<path d="M15.3334 11V13.2467C15.3337 13.4983 15.2648 13.7452 15.1343 13.9603C15.0038 14.1755 14.8167 14.3506 14.5934 14.4667L10.5934 16.52C10.4101 16.6152 10.2066 16.665 10.0001 16.665C9.79354 16.665 9.59002 16.6152 9.40675 16.52L5.40675 14.4667C5.18347 14.3506 4.99637 14.1755 4.86587 13.9603C4.73537 13.7452 4.66649 13.4983 4.66675 13.2467V11" stroke="#1F2937" stroke-linecap="round" stroke-linejoin="round"/>
</g>
<defs>
<clipPath id="clip0_7232_67105">
<rect width="16" height="16" fill="white" transform="translate(2 2)"/>
</clipPath>
</defs>
</svg>
