<svg width="40" height="40" viewBox="0 0 40 40" fill="none" xmlns="http://www.w3.org/2000/svg">
<path d="M25.524 14.5942L12.7013 22.2214C12.4945 22.3434 12.3131 22.5061 12.1674 22.7003C12.0217 22.8945 11.9146 23.1163 11.8522 23.3531C11.7898 23.5899 11.7732 23.837 11.8036 24.0804C11.8339 24.3238 11.9106 24.5586 12.0291 24.7715C12.1476 24.9844 12.3056 25.1712 12.4942 25.3212C12.6828 25.4712 12.8983 25.5814 13.1283 25.6457C13.3583 25.71 13.5984 25.727 13.8348 25.6957C14.0712 25.6645 14.2993 25.5856 14.5061 25.4636L27.3438 17.8458C27.5506 17.7238 27.732 17.561 27.8777 17.3668C28.0234 17.1727 28.1306 16.9508 28.193 16.714C28.2554 16.4772 28.2719 16.2301 28.2416 15.9867C28.2112 15.7434 28.1346 15.5085 28.0161 15.2956C27.8976 15.0828 27.7395 14.896 27.5509 14.746C27.3623 14.596 27.1468 14.4857 26.9168 14.4214C26.4523 14.2916 25.9567 14.3572 25.5391 14.6035L25.524 14.5942Z" fill="#5FA3D7"/>
<path d="M29.4882 2.50463C26.68 0.812561 23.4742 -0.0529633 20.2208 0.00250838C16.9041 0.0437975 13.6305 1.02338 10.4 2.94126C7.21162 4.83643 4.78122 7.24667 3.10882 10.172C1.44663 13.0567 0.57067 16.3495 0.573153 19.7036C0.559116 23.1244 1.49658 26.5184 3.38555 29.8855C5.25046 33.2113 7.63071 35.732 10.5263 37.4476C13.3544 39.1475 16.5762 40.0291 19.8509 39.9993C23.2755 39.9536 26.6274 38.9761 29.5664 37.1658C32.7548 35.2706 35.2002 32.8366 36.9027 29.8638C38.5839 26.963 39.4569 23.6418 39.4263 20.2641C39.4083 16.8371 38.4668 13.4597 36.6019 10.1318C34.725 6.75638 32.3537 4.214 29.4882 2.50463ZM34.4152 20.5954C34.4925 23.1015 33.8916 25.5803 32.6796 27.755C31.39 30.0026 29.5392 31.8535 27.3195 33.1153C25.1839 34.4289 22.7446 35.1273 20.2569 35.1375C17.8148 35.1291 15.4218 34.4307 13.3387 33.1184C11.149 31.7765 9.32517 29.805 7.86734 27.2038C6.38745 24.5633 5.63547 21.9415 5.6114 19.3382C5.56504 16.8304 6.18157 14.3568 7.39509 12.1818C8.69984 9.97889 10.521 8.14855 12.6915 6.85868C14.862 5.56881 17.3123 4.86069 19.8178 4.79927C22.2476 4.80197 24.6295 5.49644 26.6999 6.80591C28.8535 8.13748 30.6713 10.1256 32.1532 12.7701C33.605 15.3775 34.359 17.986 34.4152 20.5954Z" fill="#131313"/>
</svg>
