<svg width="81" height="80" viewBox="0 0 81 80" fill="none" xmlns="http://www.w3.org/2000/svg">
<path d="M7.84118 38.1455L5.6543 39.3543L11.9105 50.6024L14.0881 49.3937L7.84118 38.1455Z" fill="#33658A"/>
<path d="M66.7485 52.4941C61.9308 52.4941 58.001 56.433 58.001 61.2508C58.001 66.0685 61.9308 69.9984 66.7485 69.9984C71.5662 69.9984 75.4961 66.0685 75.4961 61.2508C75.4961 56.433 71.5662 52.4941 66.7485 52.4941Z" fill="#33658A"/>
<path d="M66.7492 57.4951C64.693 57.4951 63.0029 59.1944 63.0029 61.2507C63.0029 63.3069 64.693 64.997 66.7492 64.997C68.8056 64.997 70.4956 63.307 70.4956 61.2507C70.4956 59.1944 68.8055 57.4951 66.7492 57.4951Z" fill="#DBE9EE"/>
<path d="M66.75 47.5029C60.5516 47.5029 55.5 52.5521 55.5 58.7505C55.5013 59.0807 55.6333 59.397 55.867 59.6303C56.1007 59.8636 56.4173 59.9949 56.7475 59.9956H76.7524C77.0822 59.9943 77.3982 59.8626 77.6314 59.6294C77.8646 59.3962 77.9962 59.0803 77.9975 58.7505C77.9975 52.5521 72.9484 47.5029 66.75 47.5029Z" fill="#E86262"/>
<path d="M24.2475 52.4941C19.4298 52.4941 15.5 56.433 15.5 61.2508C15.5 66.0685 19.4298 69.9984 24.2475 69.9984C29.0652 69.9984 32.9951 66.0685 32.9951 61.2508C32.9951 56.433 29.0652 52.4941 24.2475 52.4941Z" fill="#33658A"/>
<path d="M24.2473 57.4951C22.1911 57.4951 20.501 59.1944 20.501 61.2507C20.501 63.3069 22.191 64.997 24.2473 64.997C26.3035 64.997 28.0028 63.307 28.0028 61.2507C28.0028 59.1944 26.3035 57.4951 24.2473 57.4951Z" fill="#DBE9EE"/>
<path d="M60.3731 23.7504C60.0644 23.7813 59.7783 23.926 59.5703 24.1561C59.3623 24.3862 59.2473 24.6853 59.2476 24.9955V40.0005C59.2476 46.2546 54.2542 51.248 48 51.248H44.2524C43.5383 51.248 42.9975 50.717 42.9976 50.0029V38.7455C42.9963 38.4157 42.8647 38.0997 42.6314 37.8665C42.3982 37.6333 42.0823 37.5017 41.7524 37.5004H20.5025C15.6766 37.5004 11.7549 41.4196 11.7549 46.2455V56.2504C11.7549 58.3063 13.4441 59.9956 15.5 59.9956H59.2476C59.5789 59.9981 59.8976 59.8688 60.1338 59.6364L70.1362 49.634C70.2758 49.4941 70.3801 49.3233 70.4408 49.1353C70.5015 48.9473 70.5168 48.7475 70.4854 48.5525L66.7305 24.8024C66.6837 24.51 66.5345 24.2438 66.3096 24.0511C66.0847 23.8584 65.7987 23.7517 65.5025 23.7502H60.5025C60.4594 23.748 60.4162 23.7481 60.3731 23.7504Z" fill="#FF6B6B"/>
<path d="M26.75 32.498V40.0005H41.7329C43.8119 40.0335 45.5 38.299 45.5 36.2431C45.5 34.1872 43.8083 32.498 41.7524 32.498H26.75Z" fill="#33658A"/>
<path d="M6.7526 10.002C4.69672 10.002 2.99707 11.6923 2.99707 13.7483V36.2444C2.99707 38.3003 4.69672 40.0001 6.7526 40.0001H29.2489C31.3048 40.0001 32.9952 38.3003 32.9952 36.2444V13.7483C32.9952 11.6923 31.3048 10.002 29.2489 10.002H6.7526Z" fill="#E6B57C"/>
<path d="M13 10.002V19.995C12.9961 20.9976 14.1147 21.5966 14.947 21.0377L18.0012 18.9985L21.0555 21.0377C21.8878 21.5966 23.0064 20.9952 23.0025 19.995V10.002H13Z" fill="#FDD5A6"/>
<path d="M9.25352 34.9985H14.2455C15.9126 34.9985 15.9126 32.498 14.2455 32.498H9.18903C7.46236 32.5883 7.5911 35.0796 9.25352 34.9985Z" fill="#FDD5A6"/>
<path d="M11.7549 47.5029V56.2505C11.7549 58.3063 13.4441 59.9956 15.5 59.9956H36.75V56.2505C36.75 51.4246 32.8308 47.5029 28.0049 47.5029H11.7549Z" fill="#E86262"/>
<path d="M61.7476 13.748C58.3066 13.748 55.5 16.5546 55.5 19.9955C55.5 23.4365 58.3067 26.2504 61.7476 26.2504H69.25C71.3046 26.2504 72.9951 24.5515 72.9951 22.4956V17.4931C72.9951 15.4372 71.3046 13.748 69.25 13.748H61.7476Z" fill="#E86262"/>
<path d="M51.7451 21.2501H60.5019C62.1689 21.2501 62.1689 18.7495 60.5019 18.7495H51.6851C49.958 18.8294 50.078 21.3301 51.7451 21.2501Z" fill="#33658A"/>
<path d="M66.75 13.748V26.2504H69.25C71.3046 26.2504 72.9951 24.5515 72.9951 22.4956V17.4931C72.9951 15.4372 71.3046 13.748 69.25 13.748H66.75Z" fill="#FFBC42"/>
</svg>
