<svg width="24" height="24" viewBox="0 0 24 24" fill="none" xmlns="http://www.w3.org/2000/svg">
<rect width="24" height="24" rx="12" fill="#5EA3D6"/>
<path d="M8.70739 16V14.6705L11.8139 11.794C12.0781 11.5384 12.2997 11.3082 12.4787 11.1037C12.6605 10.8991 12.7983 10.6989 12.892 10.5028C12.9858 10.304 13.0327 10.0895 13.0327 9.85938C13.0327 9.60369 12.9744 9.38352 12.858 9.19886C12.7415 9.01136 12.5824 8.8679 12.3807 8.76847C12.179 8.66619 11.9503 8.61506 11.6946 8.61506C11.4276 8.61506 11.1946 8.66903 10.9957 8.77699C10.7969 8.88494 10.6435 9.03977 10.5355 9.24148C10.4276 9.44318 10.3736 9.68324 10.3736 9.96165H8.62216C8.62216 9.39062 8.75142 8.89489 9.00994 8.47443C9.26847 8.05398 9.63068 7.72869 10.0966 7.49858C10.5625 7.26847 11.0994 7.15341 11.7074 7.15341C12.3324 7.15341 12.8764 7.2642 13.3395 7.4858C13.8054 7.70455 14.1676 8.00852 14.4261 8.39773C14.6847 8.78693 14.8139 9.23295 14.8139 9.7358C14.8139 10.0653 14.7486 10.3906 14.6179 10.7116C14.4901 11.0327 14.2614 11.3892 13.9318 11.7812C13.6023 12.1705 13.1378 12.6378 12.5384 13.1832L11.2642 14.4318V14.4915H14.929V16H8.70739Z" fill="white"/>
</svg>
