<svg width="28" height="28" viewBox="0 0 28 28" fill="none" xmlns="http://www.w3.org/2000/svg">
<path fill-rule="evenodd" clip-rule="evenodd" d="M6.5625 1.75C5.35438 1.75 4.375 2.72938 4.375 3.9375V24.0625C4.375 25.2706 5.35438 26.25 6.5625 26.25H21.4375C22.6456 26.25 23.625 25.2706 23.625 24.0625V14.875C23.625 12.4588 21.6662 10.5 19.25 10.5H17.0625C15.8544 10.5 14.875 9.52062 14.875 8.3125V6.125C14.875 3.70875 12.9162 1.75 10.5 1.75H6.5625ZM8.75 17.5C8.75 17.0168 9.14175 16.625 9.625 16.625H18.375C18.8582 16.625 19.25 17.0168 19.25 17.5C19.25 17.9832 18.8582 18.375 18.375 18.375H9.625C9.14175 18.375 8.75 17.9832 8.75 17.5ZM9.625 20.125C9.14175 20.125 8.75 20.5168 8.75 21C8.75 21.4832 9.14175 21.875 9.625 21.875H14C14.4832 21.875 14.875 21.4832 14.875 21C14.875 20.5168 14.4832 20.125 14 20.125H9.625Z" fill="#5EA3D6"/>
<path d="M15.1331 2.11856C16.0626 3.19256 16.625 4.5931 16.625 6.125V8.3125C16.625 8.55412 16.8209 8.75 17.0625 8.75H19.25C20.7819 8.75 22.1824 9.31238 23.2564 10.2419C22.2206 6.27652 19.0985 3.1544 15.1331 2.11856Z" fill="#5EA3D6"/>
</svg>
