<svg width="40" height="40" viewBox="0 0 40 40" fill="none" xmlns="http://www.w3.org/2000/svg">
<path d="M20 0.5C30.7696 0.5 39.5 9.23045 39.5 20C39.5 30.7696 30.7696 39.5 20 39.5C9.23045 39.5 0.5 30.7696 0.5 20C0.5 9.23045 9.23045 0.5 20 0.5Z" fill="white"/>
<path d="M20 0.5C30.7696 0.5 39.5 9.23045 39.5 20C39.5 30.7696 30.7696 39.5 20 39.5C9.23045 39.5 0.5 30.7696 0.5 20C0.5 9.23045 9.23045 0.5 20 0.5Z" stroke="#DFEDF7"/>
<path d="M25.8332 27.5V25.8333C25.8332 24.9493 25.482 24.1014 24.8569 23.4763C24.2317 22.8512 23.3839 22.5 22.4998 22.5H17.4998C16.6158 22.5 15.7679 22.8512 15.1428 23.4763C14.5177 24.1014 14.1665 24.9493 14.1665 25.8333V27.5" stroke="#5EA3D6" stroke-linecap="round" stroke-linejoin="round"/>
<path d="M19.9998 19.1667C21.8408 19.1667 23.3332 17.6743 23.3332 15.8333C23.3332 13.9924 21.8408 12.5 19.9998 12.5C18.1589 12.5 16.6665 13.9924 16.6665 15.8333C16.6665 17.6743 18.1589 19.1667 19.9998 19.1667Z" stroke="#5EA3D6" stroke-linecap="round" stroke-linejoin="round"/>
</svg>
