<svg width="16" height="16" viewBox="0 0 16 16" fill="none" xmlns="http://www.w3.org/2000/svg">
<path d="M10.6667 14V12.6667C10.6667 11.9594 10.3858 11.2811 9.88566 10.781C9.38556 10.281 8.70728 10 8.00004 10H4.00004C3.2928 10 2.61452 10.281 2.11442 10.781C1.61433 11.2811 1.33337 11.9594 1.33337 12.6667V14" stroke="#5EA3D6" stroke-linecap="round" stroke-linejoin="round"/>
<path d="M6.00004 7.33333C7.4728 7.33333 8.66671 6.13943 8.66671 4.66667C8.66671 3.19391 7.4728 2 6.00004 2C4.52728 2 3.33337 3.19391 3.33337 4.66667C3.33337 6.13943 4.52728 7.33333 6.00004 7.33333Z" stroke="#5EA3D6" stroke-linecap="round" stroke-linejoin="round"/>
<path d="M14.6666 14.0002V12.6669C14.6662 12.0761 14.4695 11.5021 14.1075 11.0351C13.7455 10.5682 13.2387 10.2346 12.6666 10.0869" stroke="#5EA3D6" stroke-linecap="round" stroke-linejoin="round"/>
<path d="M10.6666 2.08691C11.2402 2.23378 11.7487 2.56738 12.1117 3.03512C12.4748 3.50286 12.6719 4.07813 12.6719 4.67025C12.6719 5.26236 12.4748 5.83763 12.1117 6.30537C11.7487 6.77311 11.2402 7.10671 10.6666 7.25358" stroke="#5EA3D6" stroke-linecap="round" stroke-linejoin="round"/>
</svg>
