<svg width="104" height="104" viewBox="0 0 104 104" fill="none" xmlns="http://www.w3.org/2000/svg">
<g clip-path="url(#clip0_5013_30590)">
<path d="M104 0H0V104H104V0Z" fill="white"/>
<g opacity="0.5">
<path opacity="0.0196" d="M100.115 78.7361L65.7243 18.4075C63.7806 14.9936 60.1311 12.8727 56.2003 12.8727C52.2716 12.8727 48.6226 14.9929 46.677 18.4057L12.2856 78.7365C10.358 82.1162 10.3748 86.3061 12.3292 89.6716C14.2837 93.0374 17.9159 95.1279 21.8085 95.1279H90.5924C94.4851 95.1279 98.1173 93.037 100.071 89.6716C102.026 86.3064 102.043 82.1162 100.115 78.7361Z" fill="#FBFBFA"/>
<path opacity="0.0392" d="M100.033 78.6543L65.6424 18.3261C63.6987 14.9122 60.0492 12.7912 56.1184 12.7912C52.1898 12.7912 48.5407 14.9111 46.5951 18.3242L12.2037 78.655C10.2761 82.0348 10.2926 86.2246 12.2474 89.5897C14.2018 92.9556 17.834 95.0461 21.7263 95.0461H90.5101C94.4028 95.0461 98.035 92.9552 99.9891 89.5897C101.944 86.225 101.961 82.0348 100.033 78.6543Z" fill="#F6F6F6"/>
<path opacity="0.0588" d="M99.9525 78.5728L65.5622 18.2443C63.6185 14.8304 59.969 12.7094 56.0382 12.7094C52.1095 12.7094 48.4605 14.8296 46.5149 18.2424L12.1235 78.5732C10.1958 81.9529 10.2127 86.1428 12.1671 89.5083C14.1216 92.8741 17.7537 94.9646 21.6461 94.9646H90.4299C94.3226 94.9646 97.9548 92.8737 99.9088 89.5083C101.864 86.1432 101.88 81.9529 99.9525 78.5728Z" fill="#F2F2F1"/>
<path opacity="0.0784" d="M99.8706 78.491L65.4803 18.1628C63.5366 14.7489 59.8871 12.6279 55.9563 12.6279C52.0277 12.6279 48.3786 14.7478 46.433 18.161L12.0416 78.4917C10.114 81.8715 10.1305 86.0614 12.0852 89.4265C14.0397 92.7923 17.6719 94.8828 21.5642 94.8828H90.348C94.2407 94.8828 97.8729 92.7919 99.827 89.4265C101.782 86.0617 101.799 81.8715 99.8706 78.491Z" fill="#EDEDED"/>
<path opacity="0.098" d="M99.7881 78.4092L65.3982 18.081C63.4544 14.6671 59.805 12.5461 55.8741 12.5461C51.9455 12.5461 48.2964 14.6664 46.3508 18.0792L11.9594 78.4099C10.0318 81.7897 10.0487 85.9795 12.0031 89.345C13.9575 92.7108 17.5897 94.8014 21.482 94.8014H90.2659C94.1585 94.8014 97.7907 92.7105 99.7448 89.345C101.7 85.9799 101.716 81.7897 99.7881 78.4092Z" fill="#E9E9E8"/>
<path opacity="0.1176" d="M99.7066 78.3277L65.3163 17.9995C63.3725 14.5856 59.7231 12.4647 55.7922 12.4647C51.8636 12.4647 48.2145 14.5849 46.2689 17.9977L11.8775 78.3285C9.94989 81.7082 9.9664 85.8981 11.9212 89.2632C13.8756 92.629 17.5078 94.7196 21.4001 94.7196H90.184C94.0767 94.7196 97.7088 92.6287 99.6629 89.2632C101.618 85.8981 101.635 81.7082 99.7066 78.3277Z" fill="#E5E4E4"/>
<path opacity="0.1373" d="M99.626 78.2459L65.2361 17.9177C63.2923 14.5038 59.6429 12.3828 55.712 12.3828C51.7834 12.3828 48.1343 14.5031 46.1887 17.9159L11.7973 78.2466C9.86968 81.6264 9.88655 85.8163 11.841 89.1817C13.7954 92.5476 17.4276 94.6381 21.3203 94.6381H90.1041C93.9968 94.6381 97.629 92.5472 99.583 89.1817C101.537 85.8167 101.554 81.6264 99.626 78.2459Z" fill="#E0E0DF"/>
<path opacity="0.1569" d="M99.5444 78.1644L65.1542 17.8359C63.2104 14.422 59.561 12.301 55.6301 12.301C51.7015 12.301 48.0524 14.4213 46.1068 17.8341L11.7154 78.1648C9.78778 81.5446 9.80429 85.7345 11.7591 89.0999C13.7135 92.4658 17.3457 94.5563 21.2384 94.5563H90.0222C93.9149 94.5563 97.5471 92.4654 99.5011 89.0999C101.456 85.7352 101.472 81.5446 99.5444 78.1644Z" fill="#DCDBDB"/>
<path opacity="0.1765" d="M99.4623 78.0826L65.0724 17.7545C63.1286 14.3406 59.4792 12.2196 55.5483 12.2196C51.6197 12.2196 47.9706 14.3398 46.025 17.7526L11.6332 78.0834C9.70561 81.4632 9.72249 85.653 11.6769 89.0185C13.6313 92.3843 17.2635 94.4748 21.1558 94.4748H89.9397C93.8324 94.4748 97.4646 92.3839 99.4186 89.0185C101.374 85.6534 101.39 81.4632 99.4623 78.0826Z" fill="#D7D7D6"/>
<path opacity="0.1961" d="M99.3804 78.0012L64.9901 17.6727C63.0463 14.2588 59.3969 12.1378 55.4661 12.1378C51.5374 12.1378 47.8883 14.258 45.9427 17.6708L11.5513 78.0016C9.62372 81.3814 9.64023 85.5712 11.595 88.9367C13.5494 92.3025 17.1816 94.3931 21.0739 94.3931H89.8578C93.7505 94.3931 97.3827 92.3022 99.3367 88.9367C101.291 85.5716 101.308 81.3814 99.3804 78.0012Z" fill="#D3D2D2"/>
<path opacity="0.2157" d="M99.2983 77.9194L64.9084 17.5912C62.9647 14.1773 59.3152 12.0563 55.3844 12.0563C51.4557 12.0563 47.8067 14.1766 45.8611 17.5894L11.4693 77.9201C9.54169 81.2999 9.5582 85.4898 11.513 88.8552C13.4674 92.2211 17.0996 94.3116 20.9923 94.3116H89.7761C93.6688 94.3116 97.301 92.2207 99.2551 88.8552C101.21 85.4901 101.226 81.2999 99.2983 77.9194Z" fill="#CFCECD"/>
<path opacity="0.2353" d="M99.2163 77.8379L64.826 17.5094C62.8823 14.0955 59.2328 11.9745 55.302 11.9745C51.3733 11.9745 47.7243 14.0948 45.7787 17.5076L11.3873 77.8383C9.45966 81.2181 9.47617 85.408 11.4309 88.7734C13.3854 92.1393 17.0176 94.2298 20.9102 94.2298H89.6941C93.5868 94.2298 97.219 92.1389 99.173 88.7734C101.127 85.4083 101.144 81.2181 99.2163 77.8379Z" fill="#CAC9C8"/>
<path opacity="0.2549" d="M99.1362 77.7561L64.746 17.4279C62.8022 14.014 59.1528 11.8931 55.2219 11.8931C51.2933 11.8931 47.6442 14.0133 45.6986 17.4261L11.3072 77.7569C9.37958 81.1363 9.39609 85.3265 11.3509 88.6916C13.3053 92.0574 16.9375 94.148 20.8298 94.148H89.6137C93.5063 94.148 97.1385 92.0571 99.0926 88.6916C101.048 85.3269 101.064 81.1366 99.1362 77.7561Z" fill="#C6C5C4"/>
<path opacity="0.2745" d="M99.0542 77.6747L64.6639 17.3461C62.7202 13.9322 59.0707 11.8112 55.1399 11.8112C51.2112 11.8112 47.5622 13.9315 45.6166 17.3443L11.2252 77.675C9.29755 81.0548 9.31406 85.2447 11.2688 88.6102C13.2233 91.976 16.8554 94.0665 20.7481 94.0665H89.532C93.4247 94.0665 97.0569 91.9756 99.0109 88.6102C100.965 85.245 100.982 81.0548 99.0542 77.6747Z" fill="#C2C0BF"/>
<path opacity="0.2941" d="M98.9722 77.5928L64.5819 17.2647C62.6381 13.8508 58.9887 11.7298 55.0579 11.7298C51.1292 11.7298 47.4801 13.85 45.5345 17.2628L11.1431 77.5936C9.21552 80.973 9.23202 85.1632 11.1868 88.5283C13.1412 91.8942 16.7734 93.9847 20.6657 93.9847H89.4496C93.3423 93.9847 96.9745 91.8938 98.9285 88.5283C100.884 85.1636 100.9 80.9734 98.9722 77.5928Z" fill="#BDBCBB"/>
<path opacity="0.3137" d="M98.8898 77.511L64.4999 17.1829C62.5561 13.769 58.9067 11.648 54.9758 11.648C51.0472 11.648 47.3981 13.7682 45.4525 17.181L11.0611 77.5118C9.13348 80.8915 9.14999 85.0814 11.1048 88.4469C13.0592 91.8127 16.6914 93.9032 20.5841 93.9032H89.3679C93.2606 93.9032 96.8928 91.8123 98.8469 88.4469C100.801 85.0818 100.818 80.8915 98.8898 77.511Z" fill="#B9B7B6"/>
<path opacity="0.3333" d="M98.8081 77.4296L64.4178 17.101C62.4741 13.6871 58.8246 11.5662 54.8938 11.5662C50.9651 11.5662 47.3161 13.6864 45.3705 17.0992L10.9791 77.4303C9.05145 80.8101 9.06796 85 11.0227 88.3654C12.9772 91.7313 16.6094 93.8218 20.5017 93.8218H89.2855C93.1782 93.8218 96.8104 91.7309 98.7645 88.3654C100.719 85 100.736 80.8101 98.8081 77.4296Z" fill="#B4B3B2"/>
<path opacity="0.3529" d="M98.7277 77.3478L64.3378 17.0196C62.394 13.6057 58.7445 11.4847 54.8137 11.4847C50.8851 11.4847 47.236 13.605 45.2904 17.0178L10.899 77.3485C8.97137 80.7283 8.98788 84.9181 10.9427 88.2836C12.8971 91.6494 16.5293 93.74 20.4216 93.74H89.2055C93.0981 93.74 96.7303 91.6491 98.6844 88.2836C100.639 84.9185 100.656 80.7283 98.7277 77.3478Z" fill="#B0AEAD"/>
<path opacity="0.3725" d="M98.646 77.2663L64.2557 16.9378C62.312 13.5239 58.6625 11.4029 54.7317 11.4029C50.803 11.4029 47.154 13.5231 45.2084 16.9359L10.817 77.2667C8.88934 80.6465 8.90585 84.8363 10.8606 88.2018C12.815 91.5676 16.4472 93.6582 20.3396 93.6582H89.1234C93.0161 93.6582 96.6483 91.5673 98.6023 88.2018C100.557 84.8367 100.574 80.6465 98.646 77.2663Z" fill="#ACAAA9"/>
<path opacity="0.3922" d="M98.564 77.1845L64.1741 16.8563C62.2303 13.4424 58.5808 11.3214 54.65 11.3214C50.7214 11.3214 47.0723 13.4417 45.1267 16.8545L10.7349 77.1852C8.80731 80.565 8.82382 84.7549 10.7786 88.1203C12.733 91.4862 16.3652 93.5767 20.2579 93.5767H89.0418C92.9344 93.5767 96.5666 91.4858 98.5207 88.1203C100.475 84.7552 100.492 80.565 98.564 77.1845Z" fill="#A7A5A4"/>
<path opacity="0.4118" d="M98.4819 77.1031L64.0917 16.7745C62.1479 13.3606 58.4985 11.2396 54.5676 11.2396C50.639 11.2396 46.9899 13.3595 45.0443 16.7727L10.6529 77.1034C8.72528 80.4832 8.74179 84.6731 10.6966 88.0385C12.651 91.4044 16.2832 93.4949 20.1755 93.4949H88.9594C92.8521 93.4949 96.4842 91.404 98.4383 88.0385C100.393 84.6734 100.41 80.4832 98.4819 77.1031Z" fill="#A3A19F"/>
<path opacity="0.4314" d="M98.3998 77.0212L64.0099 16.693C62.0661 13.2792 58.4166 11.1582 54.4858 11.1582C50.5572 11.1582 46.9081 13.2784 44.9625 16.6912L10.5707 77.022C8.64311 80.4017 8.65999 84.5916 10.6144 87.9571C12.5688 91.3229 16.201 93.4134 20.0937 93.4134H88.8776C92.7702 93.4134 96.4024 91.3225 98.3565 87.9571C100.311 84.592 100.328 80.4017 98.3998 77.0212Z" fill="#9E9C9B"/>
<path opacity="0.451" d="M98.3198 76.9398L63.9296 16.6112C61.9858 13.1973 58.3363 11.0764 54.4055 11.0764C50.4769 11.0764 46.8278 13.1962 44.8822 16.6094L10.4908 76.9402C8.56317 80.3199 8.57968 84.5098 10.5345 87.8753C12.4889 91.2407 16.1211 93.3316 20.0134 93.3316H88.7972C92.6899 93.3316 96.3221 91.2407 98.2762 87.8753C100.231 84.5102 100.248 80.3199 98.3198 76.9398Z" fill="#9A9896"/>
<path opacity="0.4706" d="M98.2377 76.858L63.8474 16.5298C61.9036 13.1159 58.2542 10.9949 54.3233 10.9949C50.3947 10.9949 46.7456 13.1152 44.8 16.5279L10.4086 76.8587C8.481 80.2385 8.49788 84.4283 10.4523 87.7938C12.4067 91.1596 16.0389 93.2502 19.9312 93.2502H88.7151C92.6078 93.2502 96.24 91.1593 98.194 87.7938C100.149 84.4287 100.166 80.2385 98.2377 76.858Z" fill="#969392"/>
<path opacity="0.4902" d="M98.1558 76.7765L63.7655 16.448C61.8217 13.0341 58.1723 10.9131 54.2414 10.9131C50.3128 10.9131 46.6637 13.0333 44.7181 16.4461L10.3267 76.7769C8.39911 80.1567 8.41562 84.3465 10.3704 87.712C12.3248 91.0775 15.957 93.1684 19.8493 93.1684H88.6332C92.5259 93.1684 96.1581 91.0775 98.1121 87.712C100.067 84.3469 100.084 80.1567 98.1558 76.7765Z" fill="#918F8D"/>
<path opacity="0.5098" d="M98.0736 76.6947L63.6833 16.3665C61.7396 12.9526 58.0901 10.8317 54.1593 10.8317C50.2306 10.8317 46.5816 12.9519 44.636 16.3647L10.2446 76.6955C8.31694 80.0752 8.33382 84.2651 10.2882 87.6306C12.2426 90.9964 15.8748 93.0869 19.7675 93.0869H88.5514C92.4441 93.0869 96.0763 90.996 98.0303 87.6306C99.9851 84.2655 100.002 80.0752 98.0736 76.6947Z" fill="#8D8A89"/>
<path opacity="0.5294" d="M97.9913 76.6129L63.6014 16.2847C61.6577 12.8708 58.0082 10.7498 54.077 10.7498C50.1484 10.7498 46.4993 12.8701 44.5537 16.2829L10.1627 76.6136C8.23505 79.9934 8.25156 84.1833 10.2063 87.5488C12.1608 90.9142 15.7929 93.0051 19.6856 93.0051H88.4695C92.3622 93.0051 95.9944 90.9142 97.9484 87.5488C99.9028 84.1836 99.9197 79.9934 97.9913 76.6129Z" fill="#888684"/>
<path opacity="0.549" d="M97.9115 76.5314L63.5212 16.2033C61.5774 12.7894 57.928 10.6684 53.9972 10.6684C50.0685 10.6684 46.4195 12.7886 44.4738 16.2014L10.0825 76.5322C8.15483 79.912 8.17171 84.1018 10.1261 87.4669C12.0805 90.8328 15.7127 92.9233 19.6054 92.9233H88.3893C92.282 92.9233 95.9142 90.8324 97.8682 87.4669C99.8226 84.1018 99.8395 79.9116 97.9115 76.5314Z" fill="#848180"/>
<path opacity="0.5686" d="M97.8292 76.4496L63.4393 16.1215C61.4955 12.7076 57.8461 10.5866 53.9153 10.5866C49.9866 10.5866 46.3376 12.7068 44.3919 16.1196L10.0006 76.4504C8.07294 79.8301 8.08945 84.02 10.0442 87.3855C11.9986 90.7509 15.6308 92.8418 19.5235 92.8418H88.3074C92.2001 92.8418 95.8323 90.7509 97.7863 87.3855C99.7407 84.0204 99.7572 79.8301 97.8292 76.4496Z" fill="#807D7B"/>
<path opacity="0.5882" d="M97.7474 76.3682L63.3571 16.0396C61.4134 12.6257 57.7639 10.5048 53.8331 10.5048C49.9045 10.5048 46.2554 12.625 44.3098 16.0378L9.9184 76.3685C7.99077 79.7483 8.00765 83.9382 9.96206 87.3033C11.9165 90.6691 15.5487 92.7597 19.4414 92.7597H88.2248C92.1175 92.7597 95.7497 90.6688 97.7038 87.3033C99.6585 83.9386 99.6754 79.7483 97.7474 76.3682Z" fill="#7B7877"/>
<path opacity="0.6078" d="M97.6656 76.2864L63.2756 15.9582C61.3319 12.5443 57.6824 10.4233 53.7516 10.4233C49.8229 10.4233 46.1739 12.5436 44.2283 15.9564L9.83651 76.2871C7.90887 79.6669 7.92538 83.8567 9.88017 87.2222C11.8346 90.5877 15.4668 92.6786 19.3591 92.6786H88.143C92.0357 92.6786 95.6679 90.5877 97.6219 87.2222C99.577 83.8571 99.5936 79.6669 97.6656 76.2864Z" fill="#777472"/>
<path opacity="0.6275" d="M97.5835 76.2049L63.1932 15.8764C61.2495 12.4625 57.6 10.3415 53.6692 10.3415C49.7405 10.3415 46.0915 12.4617 44.1459 15.8745L9.75447 76.2053C7.82684 79.5851 7.84335 83.7749 9.79813 87.14C11.7525 90.5059 15.3847 92.5964 19.2771 92.5964H88.0609C91.9536 92.5964 95.5858 90.5055 97.5398 87.14C99.4946 83.7753 99.5115 79.5851 97.5835 76.2049Z" fill="#726F6D"/>
<path opacity="0.6471" d="M97.5015 76.1231L63.1116 15.7949C61.1678 12.381 57.5183 10.26 53.5875 10.26C49.6589 10.26 46.0098 12.3803 44.0642 15.7931L9.67244 76.1238C7.74481 79.5036 7.76132 83.6935 9.7161 87.0589C11.6705 90.4244 15.3027 92.5153 19.1954 92.5153H87.9792C91.8719 92.5153 95.5041 90.4244 97.4582 87.0589C99.413 83.6938 99.4295 79.5036 97.5015 76.1231Z" fill="#6E6B69"/>
<path opacity="0.6667" d="M97.4214 76.0413L63.0311 15.7131C61.0873 12.2992 57.4379 10.1782 53.5071 10.1782C49.5784 10.1782 45.9294 12.2985 43.9837 15.7113L9.59237 76.042C7.66473 79.4218 7.68124 83.6116 9.63602 86.9767C11.5904 90.3426 15.2226 92.4331 19.1153 92.4331H87.8988C91.7915 92.4331 95.4237 90.3422 97.3777 86.9767C99.3325 83.612 99.3494 79.4218 97.4214 76.0413Z" fill="#6A6664"/>
<path opacity="0.6863" d="M97.3394 75.9598L62.9491 15.6316C61.0057 12.2174 57.3562 10.0968 53.425 10.0968C49.4964 10.0968 45.8473 12.217 43.9017 15.6298L9.51033 75.9606C7.5827 79.3403 7.59921 83.5302 9.55399 86.8953C11.5084 90.2611 15.1406 92.3517 19.0333 92.3517H87.8171C91.7098 92.3517 95.342 90.2608 97.2961 86.8953C99.2508 83.5306 99.2674 79.3403 97.3394 75.9598Z" fill="#656260"/>
<path opacity="0.7059" d="M97.2573 75.8784L62.8671 15.5498C60.9233 12.1359 57.2738 10.015 53.343 10.015C49.4144 10.015 45.7653 12.1352 43.8197 15.548L9.4283 75.8787C7.50067 79.2585 7.51718 83.4484 9.47196 86.8139C11.4264 90.1793 15.0586 92.2702 18.9509 92.2702H87.7347C91.6274 92.2702 95.2596 90.1793 97.2137 86.8139C99.1685 83.4487 99.1853 79.2585 97.2573 75.8784Z" fill="#615D5B"/>
<path opacity="0.7255" d="M97.1753 75.7966L62.785 15.468C60.8412 12.0541 57.1918 9.93314 53.261 9.93314C49.3323 9.93314 45.6833 12.0534 43.7376 15.4662L9.34627 75.7973C7.41864 79.1771 7.43515 83.3669 9.38993 86.732C11.3443 90.0979 14.9765 92.1884 18.8692 92.1884H87.6531C91.5458 92.1884 95.178 90.0975 97.132 86.732C99.0868 83.3673 99.1033 79.1771 97.1753 75.7966Z" fill="#5C5957"/>
<path opacity="0.7451" d="M97.0952 75.7147L62.7049 15.3866C60.7612 11.9727 57.1117 9.85168 53.1809 9.85168C49.2523 9.85168 45.6032 11.9719 43.6576 15.3847L9.26619 75.7155C7.33856 79.0953 7.35507 83.2851 9.30985 86.6506C11.2643 90.0161 14.8965 92.1069 18.7888 92.1069H87.5726C91.4653 92.1069 95.0975 90.0161 97.0516 86.6506C99.0063 83.2855 99.0232 79.0953 97.0952 75.7147Z" fill="#585452"/>
<path opacity="0.7647" d="M97.0132 75.6333L62.6229 15.3047C60.6791 11.8908 57.0297 9.76987 53.0989 9.76987C49.1702 9.76987 45.5212 11.8901 43.5755 15.3029L9.18416 75.634C7.25653 79.0138 7.27304 83.2037 9.22782 86.5688C11.1822 89.9346 14.8144 92.0251 18.7067 92.0251H87.4906C91.3833 92.0251 95.0155 89.9342 96.9695 86.5688C98.9243 83.204 98.9412 79.0134 97.0132 75.6333Z" fill="#54504E"/>
<path opacity="0.7843" d="M96.9308 75.5515L62.5409 15.2233C60.5971 11.8094 56.9477 9.68842 53.0168 9.68842C49.0882 9.68842 45.4391 11.8087 43.4935 15.2215L9.10213 75.5522C7.1745 78.932 7.19101 83.1218 9.14579 86.4873C11.1002 89.8528 14.7324 91.9437 18.6247 91.9437H87.4086C91.3013 91.9437 94.9335 89.8528 96.8875 86.4873C98.8423 83.1222 98.8588 78.932 96.9308 75.5515Z" fill="#4F4B49"/>
<path opacity="0.8039" d="M96.8491 75.47L62.4589 15.1415C60.5151 11.7276 56.8656 9.6066 52.9348 9.6066C49.0062 9.6066 45.3571 11.7268 43.4115 15.1396L9.0201 75.4704C7.09247 78.8502 7.10898 83.04 9.06376 86.4051C11.0182 89.771 14.6504 91.8615 18.5431 91.8615H87.3269C91.2196 91.8615 94.8518 89.7706 96.8058 86.4051C98.7603 83.0404 98.7771 78.8502 96.8491 75.47Z" fill="#4B4744"/>
<path opacity="0.8235" d="M96.7671 75.3882L62.3772 15.06C60.4334 11.6461 56.784 9.52515 52.8531 9.52515C48.9245 9.52515 45.2754 11.6454 43.3298 15.0582L8.93807 75.3889C7.01044 78.7687 7.02695 82.9586 8.98173 86.3241C10.9361 89.6895 14.5683 91.7804 18.4607 91.7804H87.2449C91.1376 91.7804 94.7698 89.6895 96.7238 86.3241C98.6786 82.9589 98.6951 78.7687 96.7671 75.3882Z" fill="#474240"/>
<path opacity="0.8431" d="M96.6869 75.3068L62.2966 14.9782C60.3528 11.5643 56.7034 9.44336 52.7726 9.44336C48.8439 9.44336 45.1948 11.5636 43.2492 14.9764L8.85785 75.3072C6.93022 78.6869 6.9471 82.8768 8.90151 86.2423C10.8559 89.6081 14.4881 91.6986 18.3808 91.6986H87.1647C91.0574 91.6986 94.6896 89.6077 96.6436 86.2423C98.598 82.8772 98.6149 78.6869 96.6869 75.3068Z" fill="#423E3B"/>
<path opacity="0.8627" d="M96.605 75.225L62.2147 14.8968C60.2709 11.4829 56.6215 9.36191 52.6907 9.36191C48.762 9.36191 45.1129 11.4818 43.1673 14.895L8.77596 75.2257C6.84833 78.6055 6.86484 82.7953 8.81962 86.1604C10.774 89.5263 14.4062 91.6168 18.2985 91.6168H87.0824C90.9751 91.6168 94.6073 89.5259 96.5613 86.1604C98.5165 82.7957 98.533 78.6055 96.605 75.225Z" fill="#3E3937"/>
<path opacity="0.8824" d="M96.5228 75.1435L62.1325 14.815C60.1888 11.4011 56.5393 9.28009 52.6085 9.28009C48.6798 9.28009 45.0308 11.4003 43.0852 14.8131L8.69379 75.1439C6.76616 78.5237 6.78304 82.7135 8.73745 86.079C10.6919 89.4448 14.3241 91.5354 18.2164 91.5354H87.0002C90.8929 91.5354 94.5251 89.4445 96.4791 86.079C98.4339 82.7139 98.4508 78.5237 96.5228 75.1435Z" fill="#393532"/>
<path opacity="0.902" d="M96.4409 75.0617L62.0506 14.7335C60.1069 11.3196 56.4574 9.19864 52.5266 9.19864C48.598 9.19864 44.9489 11.3189 43.0033 14.7317L8.6119 75.0624C6.68427 78.4422 6.70078 82.6321 8.65556 85.9972C10.61 89.363 14.2422 91.4535 18.1345 91.4535H86.9187C90.8114 91.4535 94.4436 89.3626 96.3976 85.9972C98.3524 82.6324 98.3689 78.4422 96.4409 75.0617Z" fill="#35302E"/>
<path opacity="0.9216" d="M96.3587 74.9799L61.9685 14.6517C60.0247 11.2378 56.3753 9.11682 52.4444 9.11682C48.5158 9.11682 44.8667 11.2371 42.9211 14.6499L8.52973 74.9806C6.6021 78.3604 6.61897 82.5502 8.57339 85.9157C10.5278 89.2815 14.16 91.3721 18.0527 91.3721H86.8365C90.7292 91.3721 94.3614 89.2812 96.3155 85.9157C98.2699 82.5506 98.2864 78.3604 96.3587 74.9799Z" fill="#312C29"/>
<path opacity="0.9412" d="M96.2769 74.8984L61.8866 14.5702C59.9428 11.1564 56.2934 9.03537 52.3625 9.03537C48.4339 9.03537 44.7848 11.1553 42.8392 14.5684L8.44783 74.8992C6.5202 78.2789 6.53671 82.4688 8.49149 85.8339C10.4459 89.1997 14.0781 91.2903 17.9708 91.2903H86.7546C90.6473 91.2903 94.2795 89.1994 96.2336 85.8339C98.1883 82.4688 98.2049 78.2789 96.2769 74.8984Z" fill="#2C2725"/>
<path opacity="0.9608" d="M96.1963 74.8166L61.8064 14.4884C59.8626 11.0745 56.2132 8.95355 52.2823 8.95355C48.3537 8.95355 44.7046 11.0738 42.759 14.4866L8.36762 74.8173C6.43999 78.1971 6.45686 82.387 8.41128 85.7525C10.3657 89.1183 13.9979 91.2088 17.8906 91.2088H86.6744C90.5671 91.2088 94.1993 89.1179 96.1534 85.7525C98.1078 82.3874 98.1243 78.1971 96.1963 74.8166Z" fill="#282320"/>
<path opacity="0.9804" d="M96.1148 74.7352L61.7245 14.4066C59.7807 10.9927 56.1313 8.87173 52.2004 8.87173C48.2718 8.87173 44.6227 10.992 42.6771 14.4048L8.28572 74.7359C6.35809 78.1157 6.3746 82.3055 8.32938 85.6706C10.2838 89.0365 13.916 91.127 17.8087 91.127H86.5925C90.4852 91.127 94.1174 89.0361 96.0715 85.6706C98.0259 82.3055 98.0428 78.1153 96.1148 74.7352Z" fill="#231E1C"/>
<path d="M96.0326 74.6533L61.6427 14.3252C59.6989 10.9113 56.0495 8.79028 52.1186 8.79028C48.19 8.79028 44.5409 10.9105 42.5953 14.3233L8.20356 74.6541C6.27593 78.0339 6.2928 82.2237 8.24722 85.5892C10.2016 88.955 13.8338 91.0455 17.7265 91.0455H86.5104C90.4031 91.0455 94.0352 88.9546 95.9893 85.5892C97.9441 82.2241 97.9606 78.0339 96.0326 74.6533Z" fill="#1F1A17"/>
</g>
<path d="M95.9799 74.6831L61.59 14.3545C59.6572 10.9597 56.0272 8.84973 52.1177 8.84973C48.2103 8.84973 44.5811 10.9582 42.6461 14.3527L8.25435 74.6834C6.33736 78.0445 6.35387 82.212 8.29765 85.5591C10.2414 88.9062 13.8538 90.9861 17.7252 90.9861H86.5091C90.3805 90.9861 93.9929 88.9066 95.9366 85.5591C97.8808 82.2127 97.8976 78.0449 95.9799 74.6831Z" fill="white"/>
<path d="M93.2912 76.2167L58.9006 15.8877C57.5159 13.456 54.9169 11.9455 52.1172 11.9455C49.3193 11.9455 46.7206 13.4553 45.3349 15.8859L10.9435 76.2167C9.57023 78.6238 9.58234 81.6081 10.9743 84.0046C12.3663 86.4015 14.9532 87.8907 17.7254 87.8907H86.5093C89.2815 87.8907 91.8684 86.4015 93.2597 84.005C94.652 81.6081 94.6641 78.6235 93.2912 76.2167Z" fill="#EAB308"/>
<path d="M90.0852 78.0441L55.6938 17.7134C54.9648 16.4326 53.5941 15.6357 52.1178 15.6357C50.6425 15.6357 49.2722 16.4319 48.5417 17.7134L14.1496 78.0452C13.4261 79.3139 13.4323 80.8875 14.1661 82.1511C14.9002 83.415 16.264 84.1998 17.7253 84.1998H86.5091C87.9705 84.1998 89.3345 83.4147 90.0683 82.1511C90.8032 80.8875 90.8094 79.3139 90.0852 78.0441ZM86.5099 80.1519H17.726C17.6735 80.1519 17.6405 80.0954 17.6666 80.0499L52.0587 19.7184C52.0719 19.6953 52.095 19.684 52.1181 19.684C52.1412 19.684 52.1644 19.6953 52.1776 19.7184L86.5697 80.0499C86.5954 80.0954 86.5623 80.1519 86.5099 80.1519Z" fill="black"/>
<path d="M52.3461 32.802C52.2768 32.8009 52.2089 32.802 52.1418 32.8042C52.0747 32.802 52.0064 32.8009 51.9374 32.802C51.9374 32.802 45.8849 32.565 46.8751 40.9143L50.0102 65.7834C50.0102 65.7834 50.387 68.3385 52.1319 68.417V68.4184C52.1352 68.4184 52.1385 68.4177 52.1418 68.4177C52.1451 68.4177 52.1484 68.4184 52.1517 68.4184V68.417C53.8966 68.3385 54.2734 65.7834 54.2734 65.7834L57.4085 40.9143C58.3987 32.5654 52.3461 32.802 52.3461 32.802Z" fill="black"/>
<path d="M52.1427 77.5624C53.872 77.5624 55.2738 76.1461 55.2738 74.3991C55.2738 72.652 53.872 71.2358 52.1427 71.2358C50.4135 71.2358 49.0117 72.652 49.0117 74.3991C49.0117 76.1461 50.4135 77.5624 52.1427 77.5624Z" fill="black"/>
</g>
<defs>
<clipPath id="clip0_5013_30590">
<rect width="104" height="104" fill="white"/>
</clipPath>
</defs>
</svg>
